<?xml version="1.0" encoding="utf-8"?>
<!-- Generator: Adobe Illustrator 27.5.0, SVG Export Plug-In . SVG Version: 6.00 Build 0)  -->
<svg version="1.1" xmlns="http://www.w3.org/2000/svg" xmlns:xlink="http://www.w3.org/1999/xlink" x="0px" y="0px"
	 viewBox="0 0 500 500" style="enable-background:new 0 0 500 500;" xml:space="preserve">
<g id="Background_Complete">
	<g>
		<g>
			<g>
				<g>
					<g>
						<g>
							<path style="fill:#F5F5F5;" d="M392.247,268.444l-72.724-27.504c-5.025-1.901-7.559-7.515-5.658-12.541l38.068-100.659
								c1.901-5.026,7.515-7.559,12.541-5.659l46.122,17.443l21.785,50.3l-27.593,72.961
								C402.887,267.811,397.273,270.344,392.247,268.444z"/>
						</g>
					</g>
				</g>
			</g>
			<g>
				<g>
					<g>
						<g>
							<path style="fill:#EBEBEB;" d="M410.596,139.524l-10.714,28.33c-1.768,4.674,0.588,9.896,5.261,11.664l27.238,10.306
								L410.596,139.524z"/>
						</g>
					</g>
				</g>
			</g>
			<g>
				<g>
					<g>
						<g>
							<path style="fill:#E0E0E0;" d="M399.313,170.481c0,0-2.957,6.735,4.011,11.952c0.262,0.196,0.539,0.373,0.819,0.54
								c3.316,1.981,25.155,15.001,25.359,14.463c0.22-0.582,2.879-7.613,2.879-7.613l-27.24-10.302
								C405.141,179.522,398.428,176.717,399.313,170.481z"/>
						</g>
					</g>
				</g>
			</g>
		</g>
		<g>
			<g>
				<g>
					<path style="fill:#E0E0E0;" d="M394.221,164.392c-0.138,0.364-7.782-2.189-17.071-5.703
						c-9.292-3.514-16.712-6.658-16.574-7.022c0.138-0.364,7.78,2.189,17.073,5.703
						C386.938,160.884,394.359,164.028,394.221,164.392z"/>
				</g>
			</g>
		</g>
		<g>
			<g>
				<g>
					<path style="fill:#E0E0E0;" d="M409.892,188.627c-0.138,0.364-12.646-4.029-27.935-9.811
						c-15.294-5.784-27.577-10.767-27.439-11.131c0.138-0.364,12.644,4.028,27.938,9.812
						C397.745,183.279,410.03,188.263,409.892,188.627z"/>
				</g>
			</g>
		</g>
		<g>
			<g>
				<g>
					<path style="fill:#E0E0E0;" d="M409.821,203.888c-0.138,0.364-13.763-4.452-30.428-10.754
						c-16.672-6.305-30.071-11.709-29.933-12.074c0.138-0.364,13.76,4.451,30.431,10.756
						C396.557,198.118,409.959,203.524,409.821,203.888z"/>
				</g>
			</g>
		</g>
		<g>
			<g>
				<g>
					<path style="fill:#E0E0E0;" d="M405.049,216.507c-0.138,0.364-13.763-4.451-30.428-10.754
						c-16.672-6.305-30.071-11.71-29.933-12.074c0.137-0.364,13.76,4.451,30.431,10.756
						C391.784,210.738,405.186,216.144,405.049,216.507z"/>
				</g>
			</g>
		</g>
		<g>
			<g>
				<g>
					<path style="fill:#E0E0E0;" d="M400.276,229.126c-0.138,0.364-13.763-4.451-30.429-10.754
						c-16.672-6.305-30.071-11.71-29.933-12.074c0.138-0.364,13.76,4.451,30.431,10.756
						C387.012,223.357,400.414,228.763,400.276,229.126z"/>
				</g>
			</g>
		</g>
		<g>
			<g>
				<g>
					<path style="fill:#E0E0E0;" d="M395.504,241.746c-0.138,0.364-13.763-4.452-30.428-10.754
						c-16.672-6.305-30.071-11.71-29.933-12.074c0.138-0.364,13.76,4.45,30.432,10.756
						C382.239,235.976,395.641,241.382,395.504,241.746z"/>
				</g>
			</g>
		</g>
	</g>
	<g>
		<g>
			<g>
				<g>
					<g>
						<path style="fill:#EBEBEB;" d="M202.059,313.318l-95.872,33.572c-3.317,1.161-6.947-0.586-8.108-3.903L49.976,205.622
							c-1.161-3.317,0.586-6.947,3.903-8.108l95.872-33.572c3.317-1.161,6.947,0.586,8.108,3.902l48.102,137.365
							C207.123,308.526,205.375,312.157,202.059,313.318z"/>
					</g>
				</g>
			</g>
			<g>
				<g>
					<g>
						<g>
							
								<rect x="79.32" y="184.666" transform="matrix(0.9438 -0.3305 0.3305 0.9438 -77.6526 56.8834)" style="fill:#E0E0E0;" width="98.265" height="144.262"/>
						</g>
					</g>
					<g>
						<g>
							<g>
								
									<rect x="77.205" y="184.099" transform="matrix(0.9438 -0.3305 0.3305 0.9438 -77.1289 56.0753)" style="fill:#FAFAFA;" width="98.265" height="141.507"/>
							</g>
						</g>
						<g>
							<g>
								<g>
									<path style="fill:#E0E0E0;" d="M196.093,305.392c-0.392-1.116-19.224-54.733-46.893-133.512l0.169,0.081
										c-28.127,9.854-59.597,20.878-92.728,32.485l-0.011,0.004l0.089-0.186c17.481,50.167,33.752,96.495,46.741,133.565
										l-0.15-0.072C159.722,318.08,195.183,305.71,196.093,305.392c-0.908,0.319-36.341,12.774-92.705,32.587l-0.111,0.039
										l-0.039-0.111c-12.988-37.067-29.223-83.399-46.794-133.546l-0.048-0.138l0.138-0.048l0.011-0.004
										c33.134-11.598,64.607-22.614,92.737-32.46l0.126-0.044l0.044,0.125C176.972,250.623,195.704,304.276,196.093,305.392z"/>
								</g>
							</g>
						</g>
					</g>
					<g>
						<g>
							<g>
								<path style="fill:#E0E0E0;" d="M163.195,316.912c0,0,20.654-17.418,24.233-35.56c0,0-5.734,8.989-17.656,10.631
									C169.771,291.983,169.358,311.03,163.195,316.912z"/>
							</g>
						</g>
					</g>
					<g>
						<g>
							<g>
								<path style="fill:#EBEBEB;" d="M92.254,245.409l-4.884,1.71c-1.782,0.624-3.732-0.315-4.356-2.097l-1.71-4.884
									c-0.624-1.782,0.315-3.732,2.097-4.357l4.884-1.71c1.782-0.624,3.732,0.315,4.356,2.097l1.71,4.884
									C94.975,242.835,94.036,244.785,92.254,245.409z"/>
							</g>
						</g>
						<g>
							<g>
								<path style="fill:#FFFFFF;" d="M87.689,242.48c-0.003,0.001-0.006,0.002-0.009,0.003c-0.075,0.024-0.156,0.014-0.224-0.025
									l-2.236-1.297c-0.134-0.077-0.179-0.249-0.102-0.383c0.078-0.133,0.249-0.179,0.383-0.102l1.972,1.143l2.362-5.052
									c0.065-0.14,0.232-0.2,0.372-0.135c0.14,0.065,0.201,0.232,0.135,0.372l-2.491,5.329
									C87.818,242.403,87.76,242.455,87.689,242.48z"/>
							</g>
						</g>
						<g>
							<g>
								<g>
									<path style="fill:#E0E0E0;" d="M151.734,213.403c0.027,0.076-12.018,4.363-26.899,9.574
										c-14.886,5.213-26.971,9.375-26.998,9.299c-0.027-0.076,12.015-4.362,26.901-9.575
										C139.619,217.49,151.707,213.327,151.734,213.403z"/>
								</g>
							</g>
						</g>
						<g>
							<g>
								<g>
									<path style="fill:#E0E0E0;" d="M123.449,232.616c0.007,0.019-0.305,0.148-0.874,0.366
										c-0.617,0.229-1.432,0.531-2.418,0.896c-2.046,0.744-4.879,1.754-8.014,2.851c-3.136,1.098-5.98,2.077-8.043,2.771
										c-0.998,0.329-1.823,0.602-2.448,0.808c-0.58,0.185-0.904,0.278-0.911,0.259c-0.007-0.019,0.305-0.148,0.873-0.366
										c0.617-0.229,1.432-0.531,2.418-0.896c2.046-0.744,4.879-1.754,8.015-2.852c3.135-1.098,5.979-2.076,8.042-2.771
										c0.998-0.329,1.824-0.602,2.449-0.808C123.118,232.69,123.442,232.597,123.449,232.616z"/>
								</g>
							</g>
						</g>
						<g>
							<g>
								<g>
									<path style="fill:#E0E0E0;" d="M153.02,217.077c0.027,0.076-12.018,4.363-26.898,9.574
										c-14.886,5.213-26.971,9.375-26.997,9.299c-0.027-0.076,12.015-4.362,26.901-9.574
										C140.906,221.165,152.994,217.002,153.02,217.077z"/>
								</g>
							</g>
						</g>
					</g>
					<g>
						<g>
							<g>
								<path style="fill:#EBEBEB;" d="M99.222,265.309l-4.884,1.71c-1.782,0.624-3.732-0.315-4.357-2.097l-1.71-4.884
									c-0.624-1.782,0.315-3.732,2.097-4.356l4.884-1.71c1.782-0.624,3.732,0.315,4.356,2.097l1.71,4.884
									C101.943,262.734,101.004,264.685,99.222,265.309z"/>
							</g>
						</g>
						<g>
							<g>
								<path style="fill:#FFFFFF;" d="M94.657,262.379c-0.003,0.001-0.006,0.002-0.009,0.003c-0.075,0.024-0.156,0.014-0.224-0.025
									l-2.237-1.297c-0.134-0.077-0.179-0.249-0.102-0.383c0.078-0.133,0.249-0.18,0.383-0.102l1.972,1.143l2.362-5.052
									c0.065-0.14,0.232-0.2,0.372-0.135c0.14,0.065,0.201,0.232,0.135,0.372l-2.492,5.329
									C94.786,262.302,94.728,262.354,94.657,262.379z"/>
							</g>
						</g>
						<g>
							<g>
								<g>
									<path style="fill:#E0E0E0;" d="M158.702,233.302c0.027,0.076-12.018,4.363-26.899,9.574
										c-14.886,5.213-26.971,9.375-26.997,9.299c-0.027-0.076,12.015-4.362,26.901-9.575
										C146.588,237.39,158.675,233.226,158.702,233.302z"/>
								</g>
							</g>
						</g>
						<g>
							<g>
								<g>
									<path style="fill:#E0E0E0;" d="M130.417,252.515c0.007,0.019-0.305,0.148-0.873,0.366
										c-0.617,0.229-1.432,0.531-2.418,0.896c-2.046,0.744-4.879,1.754-8.014,2.851c-3.136,1.098-5.98,2.077-8.043,2.771
										c-0.998,0.329-1.823,0.602-2.449,0.808c-0.58,0.185-0.904,0.278-0.911,0.259c-0.007-0.019,0.305-0.148,0.873-0.366
										c0.617-0.229,1.432-0.531,2.418-0.896c2.046-0.744,4.879-1.754,8.015-2.852c3.135-1.098,5.979-2.076,8.042-2.771
										c0.998-0.329,1.823-0.602,2.449-0.808C130.087,252.589,130.411,252.496,130.417,252.515z"/>
								</g>
							</g>
						</g>
						<g>
							<g>
								<g>
									<path style="fill:#E0E0E0;" d="M159.989,236.977c0.027,0.076-12.018,4.363-26.899,9.574
										c-14.886,5.213-26.971,9.375-26.997,9.299c-0.027-0.076,12.015-4.362,26.901-9.574
										C147.874,241.065,159.962,236.901,159.989,236.977z"/>
								</g>
							</g>
						</g>
					</g>
					<g>
						<g>
							<g>
								<path style="fill:#EBEBEB;" d="M106.191,285.208l-4.884,1.71c-1.782,0.624-3.732-0.315-4.356-2.097l-1.71-4.884
									c-0.624-1.782,0.315-3.732,2.097-4.356l4.884-1.71c1.782-0.624,3.732,0.315,4.356,2.097l1.71,4.884
									C108.911,282.634,107.973,284.584,106.191,285.208z"/>
							</g>
						</g>
						<g>
							<g>
								<path style="fill:#FFFFFF;" d="M101.625,282.279c-0.003,0.001-0.006,0.002-0.009,0.003
									c-0.075,0.024-0.156,0.014-0.224-0.025l-2.236-1.297c-0.134-0.077-0.179-0.249-0.102-0.383
									c0.078-0.133,0.249-0.179,0.383-0.102l1.972,1.143l2.362-5.052c0.066-0.139,0.232-0.2,0.372-0.135
									c0.14,0.065,0.201,0.232,0.135,0.372l-2.492,5.329C101.754,282.201,101.696,282.254,101.625,282.279z"/>
							</g>
						</g>
						<g>
							<g>
								<g>
									<path style="fill:#E0E0E0;" d="M165.67,253.202c0.027,0.076-12.018,4.363-26.899,9.574
										c-14.886,5.213-26.971,9.375-26.997,9.299c-0.027-0.076,12.015-4.362,26.901-9.574
										C153.556,257.289,165.643,253.126,165.67,253.202z"/>
								</g>
							</g>
						</g>
						<g>
							<g>
								<g>
									<path style="fill:#E0E0E0;" d="M137.385,272.414c0.007,0.019-0.305,0.148-0.874,0.366
										c-0.617,0.229-1.432,0.531-2.418,0.896c-2.046,0.744-4.879,1.754-8.014,2.851c-3.136,1.098-5.98,2.077-8.043,2.771
										c-0.998,0.329-1.823,0.602-2.448,0.808c-0.58,0.185-0.904,0.278-0.911,0.259c-0.007-0.019,0.305-0.148,0.873-0.366
										c0.617-0.229,1.432-0.531,2.418-0.896c2.046-0.744,4.879-1.754,8.015-2.852c3.135-1.098,5.979-2.076,8.042-2.771
										c0.998-0.329,1.823-0.602,2.449-0.808C137.055,272.489,137.379,272.396,137.385,272.414z"/>
								</g>
							</g>
						</g>
						<g>
							<g>
								<g>
									<path style="fill:#E0E0E0;" d="M166.957,256.876c0.027,0.076-12.018,4.363-26.899,9.574
										c-14.886,5.213-26.971,9.375-26.997,9.299c-0.027-0.076,12.015-4.362,26.901-9.574
										C154.843,260.964,166.93,256.8,166.957,256.876z"/>
								</g>
							</g>
						</g>
					</g>
					<g>
						<g>
							<g>
								<path style="fill:#EBEBEB;" d="M113.159,305.107l-4.884,1.71c-1.782,0.624-3.732-0.315-4.356-2.097l-1.71-4.884
									c-0.624-1.782,0.315-3.732,2.097-4.356l4.884-1.71c1.782-0.624,3.732,0.315,4.356,2.097l1.71,4.884
									C115.88,302.533,114.941,304.483,113.159,305.107z"/>
							</g>
						</g>
						<g>
							<g>
								<path style="fill:#FFFFFF;" d="M108.594,302.178c-0.003,0.001-0.006,0.002-0.009,0.003
									c-0.075,0.023-0.156,0.014-0.224-0.025l-2.236-1.297c-0.134-0.078-0.179-0.249-0.102-0.383
									c0.077-0.134,0.249-0.179,0.383-0.102l1.972,1.143l2.362-5.052c0.065-0.14,0.233-0.2,0.372-0.135
									c0.14,0.066,0.201,0.232,0.135,0.372l-2.492,5.329C108.723,302.101,108.664,302.153,108.594,302.178z"/>
							</g>
						</g>
						<g>
							<g>
								<g>
									<path style="fill:#E0E0E0;" d="M172.638,273.101c0.027,0.076-12.018,4.363-26.898,9.574
										c-14.886,5.213-26.971,9.375-26.997,9.299c-0.027-0.076,12.015-4.362,26.901-9.574
										C160.524,277.189,172.612,273.025,172.638,273.101z"/>
								</g>
							</g>
						</g>
						<g>
							<g>
								<g>
									<path style="fill:#E0E0E0;" d="M144.354,292.314c0.007,0.019-0.305,0.148-0.874,0.366
										c-0.617,0.229-1.432,0.531-2.418,0.896c-2.046,0.744-4.879,1.754-8.014,2.851c-3.136,1.098-5.98,2.077-8.043,2.771
										c-0.998,0.329-1.823,0.602-2.449,0.808c-0.58,0.185-0.904,0.278-0.911,0.259c-0.007-0.019,0.305-0.148,0.873-0.366
										c0.617-0.229,1.432-0.531,2.418-0.896c2.046-0.744,4.879-1.754,8.015-2.852c3.135-1.098,5.979-2.076,8.042-2.771
										c0.998-0.329,1.823-0.602,2.449-0.808C144.023,292.388,144.347,292.295,144.354,292.314z"/>
								</g>
							</g>
						</g>
						<g>
							<g>
								<g>
									<path style="fill:#E0E0E0;" d="M173.925,276.776c0.027,0.076-12.018,4.363-26.899,9.574
										c-14.886,5.213-26.971,9.375-26.997,9.299c-0.027-0.076,12.015-4.362,26.901-9.574
										C161.811,280.863,173.898,276.7,173.925,276.776z"/>
								</g>
							</g>
						</g>
					</g>
				</g>
				<g>
					<g>
						<path style="fill:#E0E0E0;" d="M67.086,191.302l2.448,6.991c1.421,4.057,5.861,6.194,9.918,4.773l51.298-17.963
							c4.057-1.421,6.194-5.861,4.773-9.917l-2.443-6.978L67.086,191.302z"/>
					</g>
				</g>
				<g>
					<g>
						<path style="fill:#E0E0E0;" d="M100.765,181.825c-3.798,1.33-7.969-0.678-9.299-4.475c-1.33-3.798,0.678-7.969,4.476-9.299
							c3.798-1.33,7.969,0.678,9.299,4.476C106.571,176.324,104.563,180.495,100.765,181.825z M96.867,170.692
							c-2.341,0.82-3.579,3.392-2.759,5.733c0.82,2.341,3.391,3.579,5.733,2.759c2.341-0.82,3.579-3.391,2.759-5.732
							C101.779,171.11,99.208,169.872,96.867,170.692z"/>
					</g>
				</g>
			</g>
		</g>
		<g>
			<g>
				<path style="fill:#E0E0E0;" d="M141.768,199.961c0.047,0.133-13.479,4.99-30.207,10.848
					c-16.733,5.86-30.332,10.501-30.378,10.368c-0.047-0.133,13.476-4.989,30.21-10.849
					C128.12,204.47,141.721,199.828,141.768,199.961z"/>
			</g>
		</g>
		<g>
			<g>
				<path style="fill:#E0E0E0;" d="M124.444,202.449c0.047,0.133-5.908,2.339-13.298,4.926c-7.392,2.589-13.421,4.579-13.467,4.446
					c-0.047-0.133,5.907-2.338,13.299-4.927C118.368,204.306,124.398,202.316,124.444,202.449z"/>
			</g>
		</g>
	</g>
</g>
<g id="Background_Simple" style="display:none;">
	<g style="display:inline;">
		<path style="fill:#F5F5F5;" d="M378.727,81.159l-1.868,0.223c-15.747,1.883-29.342,12.046-34.926,26.735
			c-0.718,1.888-1.3,3.829-1.733,5.807c-3.119,14.245,1.566,30.003,12.013,40.398c6.144,6.113,14.309,10.751,17.804,18.643
			c4.549,10.272-0.457,21.928-5.385,31.936c-4.929,10.008-9.908,21.685-5.314,31.938c2.877,6.421,9.096,10.871,15.683,13.452
			c17.441,6.832,38.059,1.883,52.484-9.77c14.425-11.653,23.175-29.113,27.35-47.143c5.848-25.257,3.035-53.08-10.74-75.294
			C430.321,95.87,404.888,80.277,378.727,81.159z"/>
	</g>
	<g style="display:inline;">
		<path style="fill:#F5F5F5;" d="M102.861,335.844l1.87,0.201c15.769,1.696,31.296-5.159,40.032-18.223
			c1.123-1.679,2.125-3.44,2.991-5.271c6.234-13.183,5.201-29.59-2.648-42.063c-4.616-7.335-11.533-13.686-13.17-22.161
			c-2.13-11.03,5.362-21.267,12.41-29.915c7.047-8.648,14.518-18.911,12.34-29.933c-1.364-6.903-6.426-12.634-12.268-16.626
			c-15.465-10.569-36.668-10.37-53.339-2.248c-16.671,8.122-29.114,23.175-37.224,39.809c-11.362,23.303-14.861,51.048-6.418,75.785
			C55.88,309.938,77.169,330.836,102.861,335.844z"/>
	</g>
	<g style="display:inline;">
		<circle style="fill:#F5F5F5;" cx="391.847" cy="314.669" r="27.293"/>
	</g>
</g>
<g id="Plants">
	<g>
		<g>
			<g>
				<g>
					<g>
						<g>
							<path style="fill:#FF725E;" d="M390.953,405.081c3.592-1.853,7.821-2.094,11.808-1.435c2.142,0.354,4.375,0.995,5.833,2.604
								c1.458,1.609,1.734,4.441,0.06,5.823c-0.996,0.823-2.386,0.948-3.678,0.933c-3.121-0.036-6.585-0.586-9.078,1.292
								c-1.423,1.072-2.37,2.853-4.071,3.38c-1.664,0.516-3.542-0.466-4.424-1.969c-0.883-1.502-0.912-3.379-0.501-5.072
								C386.902,410.638,387.335,406.948,390.953,405.081z"/>
						</g>
					</g>
				</g>
				<g>
					<g>
						<g>
							<path style="fill:#FF725E;" d="M382.724,389.197c2.196,3.137,6.464,2.098,8.444,0.184c1.979-1.915,2.816-4.69,3.577-7.336
								c1.74-6.046,3.494-12.388,2.2-18.545c-0.387-1.841-1.075-3.676-2.368-5.042c-1.293-1.366-3.283-2.178-5.101-1.697
								c-2.152,0.569-3.49,2.676-4.456,4.682c-2.842,5.894-4.346,12.428-4.369,18.971C380.64,383.469,381,386.674,382.724,389.197"
								/>
						</g>
					</g>
				</g>
				<g>
					<g>
						<g>
							<path style="fill:#FF725E;" d="M376.693,393.698c2.385-2.83,2.837-6.958,1.776-10.503c-1.061-3.545-3.458-6.561-6.221-9.024
								c-3.239-2.887-7.047-5.133-11.139-6.573c-1.611-0.566-3.31-1.013-5.01-0.851c-1.7,0.162-3.412,1.031-4.204,2.544
								c-1.172,2.236-0.048,4.948,1.167,7.16c2.142,3.898,4.591,7.627,7.316,11.142c2.193,2.827,4.705,5.616,8.047,6.894
								c3.342,1.278,6.814,1.127,8.585-1.19"/>
						</g>
					</g>
				</g>
				<g>
					<g>
						<g>
							<g>
								<path style="fill:#263238;" d="M382.576,436.512c0.041,0.002,0.108-0.506,0.199-1.425c0.101-1.037,0.228-2.34,0.379-3.89
									c0.181-1.637,0.42-3.584,0.875-5.705c0.453-2.116,1.162-4.409,2.074-6.734c0.944-2.312,2.094-4.413,3.439-6.093
									c1.335-1.688,2.888-2.909,4.347-3.614c1.455-0.719,2.759-1.01,3.661-1.14c0.91-0.093,1.419-0.165,1.419-0.205
									c0-0.041-0.51-0.047-1.444-0.022c-0.926,0.062-2.284,0.296-3.818,0.993c-1.538,0.682-3.185,1.923-4.586,3.646
									c-1.412,1.715-2.604,3.863-3.564,6.216c-0.927,2.366-1.626,4.683-2.059,6.844c-0.432,2.158-0.629,4.127-0.758,5.777
									c-0.124,1.652-0.17,2.989-0.193,3.914C382.525,435.998,382.535,436.51,382.576,436.512z"/>
							</g>
						</g>
					</g>
				</g>
				<g>
					<g>
						<g>
							<g>
								<path style="fill:#263238;" d="M382.844,433.52c0.02-0.001,0.033-0.229,0.038-0.662c-0.001-0.497-0.003-1.123-0.005-1.891
									c-0.005-1.641-0.004-4.016,0.084-6.949c0.145-5.866,0.65-12.179,1.626-21.079c0.924-8.369,2.164-18.109,3.472-24.441
									c0.281-1.44,0.563-2.737,0.829-3.871c0.254-1.138,0.47-2.118,0.679-2.912c0.18-0.747,0.326-1.355,0.442-1.838
									c0.095-0.422,0.135-0.647,0.116-0.652c-0.02-0.006-0.098,0.208-0.23,0.62c-0.144,0.476-0.326,1.076-0.549,1.812
									c-0.244,0.786-0.493,1.76-0.778,2.893c-0.297,1.13-0.609,2.423-0.916,3.861c-1.295,5.738-2.665,13.757-3.65,22.679
									c-0.978,8.919-1.418,17.04-1.457,22.92c-0.035,2.94,0.028,5.32,0.103,6.963c0.047,0.768,0.085,1.394,0.115,1.89
									C382.796,433.294,382.823,433.521,382.844,433.52z"/>
							</g>
						</g>
					</g>
				</g>
				<g>
					<g>
						<g>
							<g>
								<path style="fill:#263238;" d="M382.883,417.857c0.041-0.001,0.034-0.703-0.014-1.976c-0.073-1.27-0.247-3.105-0.605-5.352
									c-0.379-2.242-0.909-4.905-1.741-7.798c-0.361-1.323-1.208-4.492-3.261-9.228c-2.705-6.416-6.38-11.662-9.577-14.912
									c-0.75-0.862-1.585-1.484-2.253-2.094c-0.346-0.292-0.651-0.584-0.962-0.815c-0.313-0.216-0.604-0.416-0.874-0.602
									c-1.052-0.72-1.641-1.099-1.663-1.065c-0.094,0.128,2.357,1.571,5.452,4.863c3.082,3.286,6.655,8.495,9.337,14.858
									c1.496,3.451,2.539,6.529,3.279,9.143c0.855,2.865,1.423,5.501,1.852,7.721c0.408,2.225,0.644,4.042,0.787,5.3
									C382.758,417.16,382.842,417.858,382.883,417.857z"/>
							</g>
						</g>
					</g>
				</g>
			</g>
			<g>
				<g>
					<g>
						<polygon style="fill:#263238;" points="367.744,445.486 369.313,466.987 396.936,466.987 398.505,445.486 						"/>
					</g>
				</g>
			</g>
			<g>
				<g>
					<g>
						<rect x="365.076" y="437.011" style="fill:#263238;" width="36.725" height="8.475"/>
					</g>
				</g>
			</g>
			<g>
				<g>
					<g>
						<polygon style="fill:#455A64;" points="365.076,466.165 365.076,468.514 366.801,468.514 401.194,468.514 401.194,466.165 
													"/>
					</g>
				</g>
			</g>
			<g>
				<g>
					<g>
						<polygon style="fill:#455A64;" points="368.493,472.648 366.801,468.514 399.879,468.514 397.905,472.648 						"/>
					</g>
				</g>
			</g>
			<g>
				<g>
					<g>
						<g>
							<path style="fill:#E0E0E0;" d="M397.992,452.513c0.006,0.005-0.038,0.072-0.129,0.197c-0.11,0.145-0.245,0.326-0.413,0.547
								c-0.392,0.502-0.931,1.192-1.609,2.059l-0.072,0.092l-0.069-0.096c-1.012-1.399-2.363-3.268-3.953-5.468h0.227
								c-1.176,1.665-2.486,3.52-3.892,5.511l-0.122,0.173l-0.137-0.163c-1.436-1.709-2.996-3.565-4.616-5.492l0.266-0.003
								c-0.08,0.101-0.167,0.21-0.254,0.319c-1.432,1.795-2.817,3.532-4.128,5.174l-0.138,0.173l-0.127-0.18
								c-1.401-1.983-2.71-3.835-3.894-5.51l0.226,0.011c-1.919,2.186-3.547,4.041-4.796,5.464l-0.085,0.097l-0.065-0.109
								c-0.632-1.062-1.136-1.909-1.502-2.523c-0.157-0.274-0.284-0.495-0.385-0.672c-0.085-0.154-0.125-0.235-0.118-0.24
								c0.007-0.004,0.062,0.068,0.161,0.213c0.112,0.17,0.253,0.383,0.426,0.646c0.383,0.603,0.913,1.434,1.576,2.477l-0.15-0.012
								c1.229-1.441,2.831-3.318,4.719-5.531l0.119-0.139l0.108,0.15c1.194,1.667,2.515,3.511,3.929,5.485l-0.264-0.007
								c1.307-1.645,2.689-3.385,4.118-5.182c0.087-0.109,0.174-0.218,0.254-0.319l0.131-0.165l0.135,0.161
								c1.615,1.931,3.171,3.79,4.603,5.503l-0.258,0.01c1.42-1.981,2.743-3.827,3.931-5.483l0.115-0.161l0.113,0.161
								c1.557,2.224,2.88,4.113,3.87,5.527l-0.141-0.004c0.705-0.845,1.266-1.518,1.674-2.007c0.182-0.21,0.329-0.381,0.448-0.519
								C397.93,452.565,397.986,452.508,397.992,452.513z"/>
						</g>
					</g>
				</g>
			</g>
			<g>
				<g>
					<g>
						<g>
							<path style="fill:#455A64;" d="M398.89,445.344c0,0.095-6.921,0.172-15.457,0.172c-8.539,0-15.459-0.077-15.459-0.172
								c0-0.095,6.92-0.172,15.459-0.172C391.968,445.172,398.89,445.249,398.89,445.344z"/>
						</g>
					</g>
				</g>
			</g>
			<g>
				<g>
					<g>
						<g>
							<path style="fill:#263238;" d="M400.285,468.746c0,0.095-7.522,0.172-16.799,0.172c-9.28,0-16.801-0.077-16.801-0.172
								c0-0.095,7.521-0.172,16.801-0.172C392.763,468.574,400.285,468.651,400.285,468.746z"/>
						</g>
					</g>
				</g>
			</g>
		</g>
		<g>
			<g>
				<g>
					<g>
						<path style="fill:#263238;" d="M127.798,400.148c-0.076,0.094-0.706-0.285-1.408-0.847c-0.702-0.562-1.21-1.094-1.135-1.189
							c0.076-0.094,0.706,0.285,1.408,0.847C127.365,399.521,127.873,400.053,127.798,400.148z"/>
					</g>
				</g>
				<g>
					<g>
						<path style="fill:#455A64;" d="M146.954,371.515c0.116-2.675,0.191-5.419-0.653-7.96c-0.845-2.541-2.804-4.878-5.426-5.421
							c-2.992-0.62-6.059,1.269-7.736,3.824s-2.254,5.657-2.749,8.672c-3.413,20.78-4.673,41.914-3.754,62.952l12.246,1.717
							C144.261,413.325,145.977,394.118,146.954,371.515z"/>
					</g>
					<g>
						<g>
							<path style="fill:#263238;" d="M139.175,358.04c0.007,0.003-0.012,0.069-0.055,0.195c-0.054,0.15-0.121,0.332-0.202,0.555
								c-0.2,0.518-0.472,1.224-0.816,2.115c-0.171,0.461-0.398,0.96-0.581,1.53c-0.183,0.572-0.382,1.191-0.594,1.855
								c-0.215,0.666-0.444,1.377-0.687,2.129c-0.2,0.768-0.411,1.578-0.632,2.428c-0.924,3.394-1.69,7.519-2.365,12.119
								c-0.663,4.605-1.097,9.706-1.439,15.065c-0.626,10.729-0.724,20.469-1,27.511c-0.131,3.522-0.251,6.371-0.386,8.338
								c-0.065,0.954-0.116,1.71-0.154,2.264c-0.02,0.236-0.037,0.43-0.051,0.588c-0.014,0.132-0.025,0.2-0.032,0.2
								c-0.007,0-0.012-0.069-0.012-0.202c0.002-0.159,0.004-0.353,0.008-0.59c0.017-0.555,0.041-1.312,0.071-2.268
								c0.082-1.968,0.156-4.818,0.247-8.339c0.197-7.042,0.245-16.782,0.873-27.528c0.342-5.368,0.79-10.48,1.477-15.096
								c0.699-4.611,1.5-8.745,2.465-12.141c0.232-0.85,0.454-1.66,0.664-2.428c0.255-0.751,0.495-1.462,0.721-2.127
								c0.225-0.661,0.436-1.278,0.63-1.849c0.195-0.568,0.434-1.064,0.618-1.521c0.377-0.88,0.675-1.577,0.894-2.088
								c0.097-0.216,0.177-0.393,0.242-0.538C139.136,358.097,139.168,358.037,139.175,358.04z"/>
						</g>
					</g>
					<g>
						<g>
							<path style="fill:#263238;" d="M140.31,358.047c0,0,0.751,0.771,1.496,2.533c0.771,1.748,1.254,4.529,1.117,7.922
								c-0.325,6.767-0.931,16.091-1.737,26.386c-0.81,10.297-1.707,19.604-2.43,26.332c-0.361,3.364-0.674,6.084-0.905,7.962
								c-0.117,0.909-0.209,1.63-0.278,2.161c-0.033,0.224-0.061,0.408-0.083,0.561c-0.021,0.126-0.036,0.19-0.043,0.189
								c-0.007-0.001-0.008-0.067-0.001-0.194c0.011-0.154,0.024-0.339,0.04-0.565c0.048-0.534,0.114-1.257,0.196-2.17
								c0.185-1.923,0.445-4.638,0.766-7.975c0.644-6.734,1.492-16.042,2.301-26.335c0.805-10.288,1.46-19.617,1.864-26.362
								c0.174-3.369-0.255-6.104-0.965-7.848C140.962,358.887,140.256,358.078,140.31,358.047z"/>
						</g>
					</g>
					<g>
						<g>
							<path style="fill:#263238;" d="M148.8,389.74c-0.041,0.114-1.08-0.155-2.321-0.6c-1.241-0.445-2.214-0.898-2.173-1.012
								c0.041-0.114,1.08,0.155,2.321,0.6C147.868,389.173,148.841,389.627,148.8,389.74z"/>
						</g>
					</g>
					<g>
						<g>
							<path style="fill:#263238;" d="M150.275,377.26c0.049,0.11-0.939,0.66-2.208,1.228c-1.269,0.568-2.337,0.939-2.387,0.828
								c-0.049-0.11,0.939-0.66,2.208-1.228C149.157,377.521,150.226,377.15,150.275,377.26z"/>
						</g>
					</g>
					<g>
						<g>
							<path style="fill:#263238;" d="M149.51,367.074c-0.008,0.12-0.826,0.162-1.826,0.093c-1-0.069-1.804-0.223-1.796-0.343
								c0.008-0.121,0.826-0.162,1.826-0.093C148.715,366.8,149.519,366.953,149.51,367.074z"/>
						</g>
					</g>
					<g>
						<g>
							<path style="fill:#263238;" d="M136.873,360.547c-0.102,0.064-0.639-0.604-1.198-1.492c-0.559-0.889-0.93-1.661-0.827-1.725
								c0.102-0.064,0.638,0.604,1.198,1.492C136.605,359.71,136.975,360.483,136.873,360.547z"/>
						</g>
					</g>
					<g>
						<g>
							<path style="fill:#263238;" d="M132.698,366.706c-0.003,0.121-0.781,0.202-1.739,0.182c-0.958-0.02-1.733-0.135-1.73-0.256
								c0.003-0.121,0.781-0.202,1.739-0.182C131.926,366.471,132.7,366.585,132.698,366.706z"/>
						</g>
					</g>
					<g>
						<g>
							<path style="fill:#263238;" d="M129.699,379.03c-0.045,0.112-0.865-0.113-1.83-0.502c-0.966-0.389-1.712-0.796-1.667-0.908
								c0.045-0.112,0.864,0.113,1.83,0.502C128.998,378.512,129.744,378.918,129.699,379.03z"/>
						</g>
					</g>
					<g>
						<g>
							<path style="fill:#263238;" d="M129.379,389.395c0.025,0.118-0.673,0.365-1.558,0.55c-0.886,0.186-1.623,0.241-1.648,0.122
								c-0.025-0.118,0.673-0.365,1.558-0.551C128.616,389.331,129.354,389.276,129.379,389.395z"/>
						</g>
					</g>
					<g>
						<g>
							<path style="fill:#263238;" d="M127.968,406.348c0.021,0.119-0.719,0.351-1.654,0.519c-0.935,0.168-1.71,0.207-1.731,0.088
								c-0.021-0.119,0.719-0.351,1.654-0.519C127.172,406.268,127.947,406.229,127.968,406.348z"/>
						</g>
					</g>
					<g>
						<g>
							<path style="fill:#263238;" d="M127.031,415.706c0.056,0.107-0.561,0.544-1.379,0.977c-0.818,0.433-1.527,0.697-1.584,0.59
								c-0.057-0.107,0.561-0.544,1.379-0.977C126.265,415.863,126.975,415.599,127.031,415.706z"/>
						</g>
					</g>
					<g>
						<g>
							<path style="fill:#263238;" d="M134.673,426.328c-0.105,0.06-0.643-0.683-1.202-1.659c-0.559-0.977-0.927-1.817-0.823-1.877
								c0.105-0.06,0.643,0.683,1.202,1.659C134.41,425.428,134.778,426.268,134.673,426.328z"/>
						</g>
					</g>
					<g>
						<g>
							<path style="fill:#263238;" d="M136.878,408.677c0.085,0.086-0.515,0.811-1.339,1.619c-0.824,0.808-1.561,1.393-1.645,1.307
								c-0.085-0.086,0.515-0.811,1.339-1.619C136.057,409.175,136.794,408.59,136.878,408.677z"/>
						</g>
					</g>
					<g>
						<g>
							<path style="fill:#263238;" d="M136.39,399.415c-0.089,0.082-0.645-0.374-1.242-1.019c-0.598-0.645-1.01-1.234-0.921-1.316
								c0.089-0.082,0.645,0.374,1.242,1.019C136.066,398.743,136.479,399.333,136.39,399.415z"/>
						</g>
					</g>
					<g>
						<g>
							<path style="fill:#263238;" d="M137.906,387.581c0.09,0.081-0.41,0.785-1.116,1.573c-0.707,0.789-1.352,1.362-1.442,1.281
								c-0.09-0.081,0.41-0.785,1.116-1.573C137.17,388.074,137.816,387.5,137.906,387.581z"/>
						</g>
					</g>
					<g>
						<g>
							<path style="fill:#263238;" d="M138.759,378.993c-0.085,0.086-0.782-0.462-1.557-1.224c-0.776-0.762-1.335-1.45-1.251-1.536
								c0.085-0.086,0.782,0.462,1.557,1.224C138.284,378.219,138.844,378.906,138.759,378.993z"/>
						</g>
					</g>
					<g>
						<g>
							<path style="fill:#263238;" d="M140.436,367.383c0.104,0.062-0.246,0.84-0.782,1.738c-0.536,0.898-1.054,1.576-1.158,1.514
								c-0.104-0.062,0.246-0.84,0.782-1.738C139.814,367.999,140.332,367.321,140.436,367.383z"/>
						</g>
					</g>
					<g>
						<g>
							<path style="fill:#263238;" d="M143.59,356.625c0.106,0.057-0.203,0.836-0.691,1.74c-0.488,0.904-0.97,1.589-1.077,1.532
								c-0.106-0.057,0.203-0.836,0.692-1.74C143.002,357.253,143.484,356.567,143.59,356.625z"/>
						</g>
					</g>
					<g>
						<g>
							<path style="fill:#263238;" d="M147.168,361.511c0.052,0.109-0.438,0.452-1.094,0.766c-0.656,0.314-1.231,0.48-1.283,0.371
								c-0.052-0.109,0.438-0.452,1.094-0.766C146.542,361.569,147.116,361.402,147.168,361.511z"/>
						</g>
					</g>
					<g>
						<g>
							<path style="fill:#263238;" d="M147.254,400.149c-0.024,0.114-1.135-0.039-2.395-0.58c-1.264-0.536-2.142-1.232-2.077-1.328
								c0.068-0.105,1.025,0.407,2.248,0.925C146.251,399.69,147.283,400.027,147.254,400.149z"/>
						</g>
					</g>
					<g>
						<g>
							<path style="fill:#263238;" d="M145.792,408.332c0.023,0.119-0.715,0.361-1.647,0.541c-0.933,0.18-1.708,0.23-1.73,0.111
								c-0.023-0.118,0.715-0.361,1.647-0.541C144.994,408.264,145.769,408.214,145.792,408.332z"/>
						</g>
					</g>
					<g>
						<g>
							<path style="fill:#263238;" d="M143.994,422.364c-0.071,0.091-1.007-0.55-1.865-1.637c-0.864-1.084-1.274-2.141-1.169-2.189
								c0.113-0.057,0.68,0.875,1.512,1.917C143.297,421.502,144.076,422.268,143.994,422.364z"/>
						</g>
					</g>
					<g>
						<g>
							<path style="fill:#263238;" d="M124.31,428.781c-0.078-0.092,0.419-0.646,1.111-1.238c0.692-0.592,1.317-0.997,1.396-0.906
								c0.078,0.092-0.419,0.646-1.111,1.238C125.014,428.467,124.389,428.873,124.31,428.781z"/>
						</g>
					</g>
				</g>
			</g>
			<g>
				<path style="fill:#455A64;" d="M118.651,398.156c-0.797-2.489-2.293-5.39-4.906-5.428c-1.551-0.022-2.945,1.09-3.674,2.459
					c-0.729,1.368-1.038,2.955-0.993,4.505c0.299,10.24,2.073,21.951,5.616,32.618h9.561
					C124.134,420.461,122.264,409.442,118.651,398.156z"/>
			</g>
			<g>
				<path style="fill:#455A64;" d="M101.359,382.489c-1.336-5.345-5.323-8.233-9.954-8.501c-4.226,0.741-5.865,4.902-6.367,9.163
					c-0.502,4.261,0.821,8.503,2.128,12.589c4.195,13.122,8.391,26.243,12.586,39.365c3.965-0.433,7.93-0.866,11.895-1.299
					C107.882,416.227,105.72,399.931,101.359,382.489z"/>
			</g>
			<g>
				<g>
					<path style="fill:#263238;" d="M113.745,392.728c0.041,0.032-0.392,0.43-0.81,1.353c-0.414,0.928-0.613,2.409-0.447,4.227
						c0.185,1.817,0.393,4.006,0.698,6.404c0.312,2.403,0.744,5.034,1.282,7.78c1.081,5.493,2.299,10.422,3.072,14.015
						c0.392,1.795,0.687,3.253,0.874,4.264c0.079,0.465,0.145,0.85,0.2,1.167c0.041,0.268,0.055,0.41,0.04,0.413
						s-0.058-0.133-0.127-0.395c-0.076-0.312-0.168-0.691-0.28-1.149c-0.254-1.065-0.595-2.494-1.009-4.23
						c-0.85-3.572-2.116-8.49-3.2-14c-0.539-2.754-0.961-5.397-1.252-7.813c-0.152-1.207-0.253-2.359-0.351-3.437
						c-0.088-1.072-0.205-2.073-0.256-2.996c-0.13-1.844,0.123-3.383,0.601-4.319C113.263,393.076,113.745,392.728,113.745,392.728z
						"/>
				</g>
			</g>
			<g>
				<g>
					<path style="fill:#263238;" d="M91.578,373.65c0.041,0.036-0.633,0.603-1.437,1.932c-0.802,1.313-1.653,3.455-1.81,6.224
						c-0.182,2.768,0.435,6.053,1.472,9.576c1.045,3.54,2.191,7.424,3.394,11.503c2.372,8.153,4.519,15.531,6.088,20.927
						c0.749,2.649,1.36,4.809,1.797,6.356c0.194,0.72,0.349,1.297,0.467,1.734c0.102,0.398,0.149,0.609,0.134,0.613
						c-0.015,0.004-0.089-0.198-0.219-0.588c-0.138-0.432-0.319-1-0.546-1.711c-0.47-1.538-1.126-3.684-1.93-6.316
						c-1.601-5.386-3.791-12.751-6.211-20.891c-1.192-4.083-2.327-7.971-3.362-11.516c-1.02-3.544-1.618-6.887-1.393-9.707
						c0.2-2.819,1.115-4.987,1.975-6.294C90.859,374.169,91.578,373.65,91.578,373.65z"/>
				</g>
			</g>
			<g>
				<g>
					<path style="fill:#263238;" d="M109.053,432.536c-0.014,0.006-0.106-0.191-0.269-0.57c-0.156-0.382-0.409-0.936-0.678-1.673
						c-0.567-1.462-1.294-3.615-2.046-6.317c-0.756-2.701-1.499-5.959-2.217-9.593c-0.689-3.642-1.446-7.637-2.24-11.833
						c-0.827-4.187-1.748-8.149-2.817-11.685c-1.066-3.536-2.262-6.647-3.468-9.165c-1.2-2.521-2.346-4.475-3.207-5.779
						c-0.409-0.667-0.781-1.147-1.002-1.495c-0.23-0.342-0.345-0.526-0.333-0.535c0.012-0.009,0.151,0.157,0.404,0.483
						c0.245,0.332,0.64,0.798,1.072,1.453c0.907,1.28,2.102,3.22,3.344,5.739c1.249,2.516,2.482,5.635,3.575,9.182
						c1.096,3.547,2.032,7.522,2.861,11.718c0.782,4.198,1.527,8.196,2.206,11.84c0.695,3.633,1.405,6.887,2.12,9.59
						c0.711,2.703,1.39,4.863,1.907,6.339c0.243,0.744,0.47,1.307,0.599,1.699C109.002,432.323,109.067,432.53,109.053,432.536z"/>
				</g>
			</g>
			<g>
				<g>
					<path style="fill:#263238;" d="M87.379,393.777c0.028,0.117-0.618,0.375-1.445,0.576c-0.827,0.201-1.52,0.268-1.548,0.151
						c-0.029-0.117,0.618-0.375,1.445-0.576C86.657,393.727,87.35,393.659,87.379,393.777z"/>
				</g>
			</g>
			<g>
				<g>
					<path style="fill:#263238;" d="M86.118,385.658c-0.006,0.123-0.905,0.173-2.006,0.217c-1.102,0.042-2.001,0.063-2.017-0.059
						c-0.016-0.118,0.876-0.335,2-0.378C85.219,385.393,86.125,385.54,86.118,385.658z"/>
				</g>
			</g>
			<g>
				<g>
					<path style="fill:#263238;" d="M87.459,378.244c-0.078,0.092-0.724-0.328-1.443-0.937c-0.719-0.61-1.238-1.179-1.16-1.271
						c0.078-0.092,0.724,0.328,1.443,0.938C87.017,377.583,87.537,378.152,87.459,378.244z"/>
				</g>
			</g>
			<g>
				<g>
					<path style="fill:#263238;" d="M91.087,371.38c0.12,0.027,0.087,0.605,0.069,1.305c-0.022,0.699-0.023,1.278-0.145,1.298
						c-0.116,0.022-0.316-0.563-0.293-1.311C90.739,371.924,90.972,371.352,91.087,371.38z"/>
				</g>
			</g>
			<g>
				<g>
					<path style="fill:#263238;" d="M98.502,374.614c0.099,0.069-0.192,0.655-0.649,1.309c-0.458,0.654-0.909,1.127-1.008,1.058
						c-0.099-0.069,0.191-0.655,0.649-1.309C97.952,375.018,98.403,374.545,98.502,374.614z"/>
				</g>
			</g>
			<g>
				<g>
					<path style="fill:#263238;" d="M103.314,382.974c0.046,0.112-0.57,0.469-1.376,0.797c-0.805,0.328-1.495,0.504-1.541,0.392
						c-0.046-0.112,0.57-0.469,1.376-0.797C102.578,383.037,103.268,382.862,103.314,382.974z"/>
				</g>
			</g>
			<g>
				<g>
					<path style="fill:#263238;" d="M106.233,391.574c0.049,0.106-0.767,0.572-1.886,0.823c-1.118,0.256-2.055,0.188-2.057,0.071
						c-0.005-0.125,0.887-0.251,1.96-0.498C105.324,391.73,106.184,391.46,106.233,391.574z"/>
				</g>
			</g>
			<g>
				<g>
					<path style="fill:#263238;" d="M92.83,389.132c-0.115-0.036-0.032-0.63,0.187-1.327c0.218-0.697,0.489-1.233,0.604-1.197
						c0.115,0.036,0.032,0.63-0.187,1.327C93.216,388.632,92.946,389.168,92.83,389.132z"/>
				</g>
			</g>
			<g>
				<g>
					<path style="fill:#263238;" d="M94.7,399.929c-0.111-0.048,0.13-0.849,0.538-1.788c0.408-0.939,0.828-1.662,0.939-1.614
						s-0.13,0.849-0.538,1.788C95.232,399.255,94.811,399.977,94.7,399.929z"/>
				</g>
			</g>
			<g>
				<g>
					<path style="fill:#263238;" d="M90.082,402.886c-0.047,0.113-0.801-0.092-1.713-0.376c-0.912-0.286-1.648-0.547-1.622-0.667
						c0.025-0.116,0.82-0.044,1.753,0.249C89.432,402.382,90.128,402.776,90.082,402.886z"/>
				</g>
			</g>
			<g>
				<g>
					<path style="fill:#263238;" d="M92.744,411.69c0.07,0.098-0.439,0.582-1.138,1.081c-0.699,0.499-1.322,0.823-1.392,0.725
						c-0.07-0.098,0.439-0.582,1.138-1.081C92.051,411.916,92.674,411.591,92.744,411.69z"/>
				</g>
			</g>
			<g>
				<g>
					<path style="fill:#263238;" d="M94.88,420.467c0.029,0.117-0.602,0.372-1.408,0.568c-0.806,0.196-1.483,0.26-1.511,0.142
						c-0.029-0.117,0.602-0.371,1.408-0.568C94.174,420.414,94.851,420.35,94.88,420.467z"/>
				</g>
			</g>
			<g>
				<g>
					<path style="fill:#263238;" d="M106.468,398.908c0.061,0.101-0.478,0.531-1.263,0.825c-0.784,0.297-1.473,0.33-1.494,0.214
						c-0.024-0.121,0.594-0.34,1.34-0.623C105.797,399.044,106.406,398.801,106.468,398.908z"/>
				</g>
			</g>
			<g>
				<g>
					<path style="fill:#263238;" d="M108.124,412.563c-0.051,0.109-0.694-0.085-1.434-0.433c-0.741-0.349-1.299-0.72-1.248-0.829
						c0.051-0.109,0.693,0.085,1.434,0.433C107.617,412.083,108.176,412.454,108.124,412.563z"/>
				</g>
			</g>
			<g>
				<g>
					<path style="fill:#263238;" d="M111.047,422.335c-0.044,0.112-0.892-0.115-1.894-0.507c-1.002-0.393-1.778-0.802-1.734-0.915
						c0.044-0.112,0.892,0.115,1.894,0.507C110.315,421.813,111.091,422.223,111.047,422.335z"/>
				</g>
			</g>
			<g>
				<g>
					<path style="fill:#263238;" d="M95.348,429.991c-0.059-0.11,0.721-0.634,1.622-1.346c0.905-0.707,1.599-1.341,1.691-1.257
						c0.089,0.076-0.482,0.867-1.421,1.601C96.304,429.727,95.401,430.095,95.348,429.991z"/>
				</g>
			</g>
			<g>
				<g>
					<path style="fill:#263238;" d="M103.075,425.022c-0.124,0.014-0.292-0.642-0.591-1.405c-0.292-0.766-0.609-1.365-0.507-1.437
						c0.092-0.072,0.599,0.454,0.915,1.28C103.213,424.283,103.191,425.013,103.075,425.022z"/>
				</g>
			</g>
			<g>
				<g>
					<path style="fill:#263238;" d="M101.026,413.269c-0.071,0.098-0.57-0.139-1.115-0.531c-0.545-0.392-0.93-0.788-0.859-0.886
						c0.07-0.098,0.569,0.139,1.115,0.531C100.712,412.774,101.097,413.171,101.026,413.269z"/>
				</g>
			</g>
			<g>
				<g>
					<path style="fill:#263238;" d="M119.037,394.851c0.072,0.097-0.414,0.578-1.086,1.073c-0.672,0.495-1.274,0.818-1.346,0.721
						c-0.072-0.097,0.414-0.577,1.086-1.073C118.363,395.077,118.966,394.754,119.037,394.851z"/>
				</g>
			</g>
			<g>
				<g>
					<path style="fill:#263238;" d="M121.752,402.272c0.011,0.117-0.75,0.277-1.692,0.173c-0.942-0.1-1.652-0.419-1.616-0.53
						c0.035-0.119,0.766,0.001,1.663,0.095C121.003,402.11,121.743,402.149,121.752,402.272z"/>
				</g>
			</g>
			<g>
				<g>
					<path style="fill:#263238;" d="M110.084,403.936c0.026,0.115-0.679,0.368-1.589,0.427c-0.911,0.062-1.643-0.095-1.632-0.212
						c0.009-0.123,0.728-0.164,1.603-0.224C109.341,403.871,110.058,403.816,110.084,403.936z"/>
				</g>
			</g>
			<g>
				<g>
					<path style="fill:#263238;" d="M111.086,396.921c-0.009,0.116-0.721,0.135-1.5-0.226c-0.782-0.356-1.231-0.909-1.149-0.991
						c0.084-0.093,0.62,0.271,1.332,0.593C110.476,396.627,111.102,396.797,111.086,396.921z"/>
				</g>
			</g>
			<g>
				<g>
					<path style="fill:#263238;" d="M122.754,410.239c-0.064,0.102-0.794-0.241-1.629-0.767c-0.836-0.526-1.46-1.035-1.396-1.137
						c0.064-0.102,0.794,0.241,1.629,0.767C122.193,409.628,122.818,410.137,122.754,410.239z"/>
				</g>
			</g>
			<g>
				<g>
					<rect x="88.973" y="431.063" style="fill:#FF725E;" width="62.251" height="11.033"/>
				</g>
				<g>
					<polygon style="fill:#FF725E;" points="93.622,439.908 101.191,472.879 138.293,472.879 146.575,439.908 					"/>
				</g>
				<g>
					<g>
						<path style="fill:#263238;" d="M151.19,442.111c0,0.121-14.042,0.219-31.359,0.219c-17.323,0-31.362-0.098-31.362-0.219
							c0-0.121,14.039-0.219,31.362-0.219C137.148,441.892,151.19,441.99,151.19,442.111z"/>
					</g>
				</g>
			</g>
			<g>
				<g>
					<path style="fill:#263238;" d="M116.57,404.177c-0.102,0.064-0.528-0.432-0.95-1.107c-0.422-0.676-0.682-1.275-0.579-1.34
						c0.103-0.064,0.528,0.432,0.95,1.108C116.413,403.514,116.672,404.113,116.57,404.177z"/>
				</g>
			</g>
			<g>
				<g>
					<path style="fill:#263238;" d="M116.593,413.054c-0.115-0.038,0.031-0.788,0.326-1.675c0.295-0.887,0.627-1.576,0.741-1.537
						c0.115,0.038-0.031,0.788-0.326,1.675C117.039,412.404,116.707,413.092,116.593,413.054z"/>
				</g>
			</g>
			<g>
				<g>
					<path style="fill:#263238;" d="M119.631,422.374c-0.109,0.052-0.574-0.693-1.039-1.664c-0.465-0.971-0.753-1.801-0.644-1.853
						c0.109-0.052,0.574,0.693,1.039,1.664C119.452,421.492,119.74,422.322,119.631,422.374z"/>
				</g>
			</g>
			<g>
				<g>
					<path style="fill:#263238;" d="M113.056,429.872c-0.091-0.079,0.28-0.657,0.83-1.29c0.549-0.633,1.069-1.082,1.16-1.003
						c0.091,0.079-0.28,0.656-0.83,1.29C113.667,429.502,113.148,429.951,113.056,429.872z"/>
				</g>
			</g>
			<g>
				<g>
					<path style="fill:#263238;" d="M111.676,416.258c-0.021,0.119-0.62,0.113-1.338-0.014c-0.718-0.127-1.283-0.326-1.262-0.445
						c0.021-0.119,0.62-0.113,1.338,0.014C111.132,415.94,111.697,416.139,111.676,416.258z"/>
				</g>
			</g>
		</g>
	</g>
</g>
<g id="Character">
	<g>
		<g>
			<g>
				<rect x="180.628" y="355.236" style="fill:#E0E0E0;" width="147.622" height="117.722"/>
			</g>
			<g style="opacity:0.3;">
				<g>
					<path d="M191.383,355.483c17.38,6.202,36.55,7.524,55.202,7.873c3.862,0.072,7.774,0.066,11.512,1.04
						c3.738,0.974,7.356,3.071,9.276,6.423c2.09,3.649,1.867,8.219,0.681,12.254c-1.186,4.035-3.242,7.754-4.728,11.688
						c-2.607,6.903-3.417,14.477-2.329,21.775c0.462,3.101,1.293,6.224,3.085,8.797c1.792,2.573,4.68,4.532,7.815,4.577
						c5.61,0.081,9.452-5.434,12.234-10.307c11.408-19.985,23.751-42.708,31.051-64.531L191.383,355.483z"/>
				</g>
			</g>
			<g>
				<g>
					<path style="fill:#455A64;" d="M230.927,472.328c-0.144,0-0.26-26.092-0.26-58.271c0-32.19,0.117-58.277,0.26-58.277
						c0.144,0,0.26,26.087,0.26,58.277C231.187,446.235,231.07,472.328,230.927,472.328z"/>
				</g>
			</g>
		</g>
		<g>
			<g>
				<g>
					<path style="fill:#FF725E;" d="M291.418,268.239c-0.439-2.935-9.213-12.642-9.213-12.642s-4.387-17.608-5.703-22.8
						c-0.329-1.298-1.034-2.772-1.908-4.253c-3.062-5.194-7.552-9.4-12.808-12.355l-12.142-6.828l-2.906-6.465l-29.175-14.989
						l-7.91,13.955c0,0-19.21,6.105-21.752,10.466c-2.543,4.361,1.261,62.798,1.261,62.798s-8.04,33.725-9.736,40.702
						c-1.695,6.977,0.546,15.304,0.546,15.304l14.308-17.957c4.445-5.579,14.208-8.143,21.217-8.044l59.911,0.264l-2.383-16.781
						l48.442,9.421c0,0,8.335-16.254,8.993-16.581C331.119,281.129,291.418,268.239,291.418,268.239z"/>
				</g>
				<g>
					<path style="fill:#FFFFFF;" d="M216.318,207.348c-0.421-0.428,3.386,12.426,8.163,25.517
						c2.574,7.053,3.864,14.534,3.864,22.068v28.82v18.578l28.727-1.951l-4.295-31.223c0,0-3.502-20.142-4.482-27.801
						c-0.898-7.014-3.983-26.034-3.983-26.034S228.346,219.597,216.318,207.348z"/>
				</g>
				<g>
					<g>
						<path style="fill:#263238;" d="M280.061,280.016c-0.033-0.003-0.044-0.261-0.002-0.723c0.04-0.462,0.15-1.129,0.378-1.931
							c0.443-1.598,1.466-3.753,3.283-5.574c1.817-1.822,3.971-2.849,5.568-3.295c0.802-0.229,1.468-0.34,1.93-0.382
							c0.463-0.042,0.72-0.032,0.723,0.001c0.012,0.089-1.007,0.197-2.541,0.732c-1.527,0.524-3.567,1.564-5.311,3.312
							c-1.744,1.747-2.78,3.789-3.3,5.317C280.257,279.009,280.15,280.028,280.061,280.016z"/>
					</g>
				</g>
				<g>
					<g>
						<path style="fill:#263238;" d="M281.541,268.644c-0.063-0.114,1.825-1.069,4.385-1.27c2.56-0.22,4.578,0.414,4.534,0.536
							c-0.03,0.155-2.028-0.232-4.492-0.017C283.505,268.084,281.597,268.793,281.541,268.644z"/>
					</g>
				</g>
				<g>
					<g style="opacity:0.3;">
						<g>
							<path d="M186.267,294.507l-2.493,2.827c2.671,3.106,6.142,5.713,10.121,6.692c3.978,0.979,8.113,1.095,12.21,1.105
								c1.659,0.004,3.344-0.011,4.938-0.47c1.625-0.468,3.141-1.392,4.829-1.493c1.13-0.068,2.244,0.242,3.351,0.479
								c1.107,0.238,2.279,0.402,3.357,0.054c1.078-0.348,2.021-1.347,1.954-2.477C212.076,297.591,199.217,295.333,186.267,294.507
								z"/>
						</g>
					</g>
					<g>
						<path style="fill:#FFBE9D;" d="M268.269,298.133l-7.048-7.486l-14.498-3.669c0,0-13.286,3.98-13.604,3.969
							c-0.318-0.011-11.563-3.072-11.563-3.072l-3.929,14.414l20.252,1.387l23.124-0.926c0,0,1.206-1.123,0.491-1.891
							c-0.715-0.767,3.866,1.298,4.405,1.323c0.529,0.024,1.585,0.439,2.299-0.425C268.685,301.169,269.347,299.277,268.269,298.133
							z"/>
					</g>
					<g>
						<g>
							<path style="fill:#EB996E;" d="M261.494,300.86c-0.027,0.071-0.899-0.21-2.304-0.656c-1.405-0.446-3.35-1.042-5.525-1.6
								c-2.176-0.556-4.169-0.969-5.614-1.259c-1.446-0.289-2.343-0.47-2.333-0.544c0.009-0.068,0.925-0.016,2.394,0.181
								c1.468,0.198,3.488,0.557,5.682,1.117c2.193,0.562,4.137,1.219,5.518,1.757C260.694,300.395,261.519,300.797,261.494,300.86z
								"/>
						</g>
					</g>
					<g>
						<g>
							<path style="fill:#EB996E;" d="M268.269,298.133c-0.029,0.072-1.241-0.379-3.216-1.038c-1.974-0.666-4.732-1.481-7.799-2.337
								c-3.064-0.911-5.792-1.821-7.861-1.942c-2.061-0.175-3.318,0.232-3.338,0.131c-0.008-0.029,0.293-0.155,0.868-0.293
								c0.574-0.139,1.432-0.242,2.491-0.206c2.137,0.03,4.949,0.908,7.981,1.808c3.069,0.857,5.829,1.733,7.781,2.492
								c0.978,0.374,1.757,0.707,2.289,0.952C267.997,297.944,268.283,298.1,268.269,298.133z"/>
						</g>
					</g>
				</g>
				<g>
					<path style="fill:#FF725E;" d="M187.902,212.329c0,0-10.452,7.268-12.995,17.734c-2.542,10.466-13.56,53.204-11.3,59.6
						c2.26,6.396,46.206,12.668,46.206,12.668l5.207-21.971l-22.317-6.105c0,0,0.283-20.351,0.565-28.782
						S187.902,212.329,187.902,212.329z"/>
				</g>
				<g>
					<polygon style="fill:#FFFFFF;" points="214.729,283.637 221.921,285.408 217.595,301.991 210.528,300.86 					"/>
				</g>
				<g>
					<g>
						<path style="fill:#263238;" d="M163.442,287.401c0.037,0-0.021,0.366,0.107,1.035c0.142,0.659,0.568,1.616,1.532,2.495
							c1.91,1.778,5.556,3.259,10.182,4.091l0.015,0.003l0.018,0.006c2.114,0.694,4.521,1.246,7.096,1.829
							c2.58,0.577,5.347,1.167,8.271,1.762c5.847,1.196,12.317,2.453,19.172,3.736l-0.298,0.193
							c0.496-2.038,1.021-4.193,1.554-6.377c1.233-5.042,2.427-9.926,3.56-14.556l0.176,0.301
							c-7.381-2.107-14.116-4.029-19.835-5.662l-0.011-0.003l-0.011-0.005c-3.028-1.24-6.04-1.693-8.651-1.515
							c-2.623,0.12-4.822,0.822-6.529,1.533c-1.71,0.733-2.934,1.528-3.751,2.078c-0.378,0.276-0.678,0.494-0.908,0.662
							c-0.206,0.149-0.315,0.221-0.322,0.213c-0.007-0.008,0.09-0.096,0.284-0.261c0.197-0.161,0.481-0.413,0.877-0.712
							c0.799-0.584,2.013-1.418,3.729-2.191c1.713-0.751,3.934-1.496,6.601-1.648c2.654-0.211,5.73,0.222,8.826,1.465l-0.022-0.008
							c5.727,1.606,12.47,3.497,19.861,5.569l0.233,0.065l-0.057,0.236c-1.127,4.632-2.315,9.517-3.542,14.561
							c-0.533,2.184-1.06,4.339-1.557,6.376l-0.058,0.238l-0.24-0.045c-6.858-1.291-13.325-2.567-19.171-3.791
							c-2.924-0.609-5.689-1.216-8.27-1.811c-2.579-0.603-4.974-1.171-7.125-1.901l0.032,0.008c-4.676-0.89-8.333-2.431-10.26-4.301
							c-0.969-0.924-1.385-1.934-1.497-2.615C163.353,287.762,163.442,287.401,163.442,287.401z"/>
					</g>
				</g>
				<g>
					<g>
						<path style="fill:#263238;" d="M193.909,275.711c-0.061,0.066-0.806-0.617-2.147-1.515c-1.336-0.9-3.316-1.957-5.675-2.649
							c-2.362-0.683-4.6-0.854-6.211-0.812c-1.613,0.038-2.608,0.214-2.625,0.126c-0.013-0.052,0.964-0.359,2.607-0.493
							c1.637-0.138,3.948-0.022,6.374,0.68c2.423,0.711,4.435,1.853,5.742,2.849C193.289,274.891,193.948,275.675,193.909,275.711z"
							/>
					</g>
				</g>
				<g>
					<g>
						<path style="fill:#263238;" d="M196.835,239.913c0.036,0.002,0.039,0.479,0.015,1.34c-0.019,0.862-0.094,2.106-0.211,3.643
							c-0.246,3.071-0.704,7.307-1.507,11.942c-0.788,4.638-1.796,8.79-2.772,11.722c-0.245,0.732-0.497,1.386-0.713,1.959
							c-0.238,0.537-0.45,1.015-0.639,1.44c-0.412,0.763-0.653,1.174-0.684,1.156c-0.031-0.017,0.149-0.46,0.5-1.239
							c0.163-0.431,0.346-0.916,0.551-1.46c0.188-0.579,0.413-1.235,0.634-1.968c0.879-2.937,1.825-7.077,2.61-11.699
							c0.799-4.618,1.314-8.834,1.653-11.889c0.15-1.45,0.276-2.664,0.376-3.622C196.735,240.384,196.8,239.911,196.835,239.913z"/>
					</g>
				</g>
				<g>
					<g>
						<path style="fill:#263238;" d="M222.322,228.578c-0.034,0.009-0.104-0.273-0.347-0.739c-0.245-0.458-0.692-1.115-1.502-1.643
							c-0.786-0.524-2.001-0.896-3.252-0.476c-1.228,0.397-2.439,1.551-2.744,3.106l-0.14,0.711l-0.306-0.658
							c-1.053-2.265-2.13-4.884-3.056-7.721c-1.69-5.149-2.419-10.081-2.259-13.642c-0.005-0.89,0.125-1.691,0.176-2.394
							c0.121-0.697,0.21-1.299,0.318-1.784c0.253-0.963,0.409-1.487,0.443-1.477c0.129,0.025-0.592,2.134-0.569,5.661
							c-0.064,3.515,0.711,8.367,2.386,13.475c0.918,2.813,1.971,5.42,2.989,7.685l-0.446,0.054c0.372-1.752,1.726-2.98,3.088-3.39
							c1.401-0.434,2.722,0.025,3.53,0.616c0.839,0.598,1.267,1.316,1.478,1.812c0.104,0.251,0.165,0.452,0.189,0.591
							C222.327,228.503,222.335,228.575,222.322,228.578z"/>
					</g>
				</g>
				<g>
					<g>
						<path style="fill:#263238;" d="M246.703,230.829c-0.034,0.003-0.101-0.419-0.231-1.19c-0.106-0.77-0.361-1.901-0.212-3.352
							c0.201-1.424,0.874-3.15,2.411-4.429c0.76-0.629,1.803-1.05,2.907-1.044c1.092-0.001,2.284,0.424,3.061,1.369l-0.441,0.253
							c-0.304-0.767-0.624-1.571-0.949-2.39c-1.865-4.711-3.527-8.986-4.705-12.089c-0.552-1.485-1.012-2.722-1.37-3.684
							c-0.313-0.874-0.469-1.363-0.436-1.376c0.034-0.013,0.255,0.453,0.626,1.305c0.398,0.947,0.91,2.165,1.525,3.627
							c1.266,3.07,2.982,7.325,4.848,12.036c0.323,0.819,0.641,1.624,0.944,2.391l0.61,1.544l-1.051-1.291
							c-0.654-0.804-1.687-1.192-2.665-1.201c-0.988-0.012-1.911,0.342-2.621,0.909c-1.428,1.141-2.128,2.788-2.354,4.116
							c-0.188,1.368,0.006,2.508,0.057,3.283C246.73,230.395,246.735,230.827,246.703,230.829z"/>
					</g>
				</g>
				<g>
					<g>
						<path style="fill:#263238;" d="M265.25,233.31c0.142-0.02,2.402,15.183,5.047,33.953c2.645,18.776,4.674,34.009,4.531,34.029
							c-0.142,0.02-2.402-15.18-5.047-33.956C267.136,248.566,265.107,233.33,265.25,233.31z"/>
					</g>
				</g>
				<g style="opacity:0.3;">
					<g>
						<path d="M211.282,221.322c0.122,3.882,0.973,7.737,2.491,11.293c1.089-1.344,2.296-2.767,3.953-3.163
							c2.065-0.495,4.154,0.783,5.646,2.333c-0.316-1.546-0.838-3.085-1.803-4.314c-0.965-1.229-2.429-2.114-3.964-2.072
							c-1.535,0.042-3.061,1.166-3.337,2.721l-2.866-6.732"/>
					</g>
				</g>
				<g>
					<g>
						<path style="fill:#263238;" d="M194.395,232.311c-0.097-0.001-0.064-1.047-0.367-2.681c-0.299-1.629-1.027-3.84-2.432-5.947
							c-0.708-1.046-1.501-1.954-2.286-2.717c-0.808-0.736-1.582-1.354-2.292-1.784c-1.404-0.887-2.395-1.228-2.361-1.319
							c0.012-0.034,0.265,0.029,0.717,0.175c0.229,0.067,0.502,0.166,0.806,0.314c0.307,0.141,0.665,0.289,1.027,0.514
							c0.754,0.401,1.577,1.007,2.429,1.748c0.828,0.768,1.661,1.699,2.393,2.78c1.453,2.179,2.151,4.493,2.362,6.178
							c0.107,0.844,0.136,1.534,0.098,2.008C194.462,232.053,194.43,232.313,194.395,232.311z"/>
					</g>
				</g>
			</g>
			<g>
				<g>
					<g>
						<g>
							<g>
								<g>
									<path style="fill:#FFBE9D;" d="M252.435,160.946c-1.183-11.103-10.698-19.431-21.86-19.144l-1.109,0.029
										c-11.944,1.006-17.761,11.712-16.425,23.623l3.277,41.895l1.388,1.703c6.421,7.881,17.342,10.455,26.607,6.271l0,0
										l-0.918-13.478c0,0,11.453-2.084,11.3-13.584C254.62,182.705,253.536,171.276,252.435,160.946z"/>
								</g>
							</g>
						</g>
						<g>
							<g>
								<g>
									<g>
										<g>
											<g>
												<g>
													<g>
														<g>
															<g>
																<path style="fill:#EB996E;" d="M243.485,201.826c0,0-7.331,0.631-15.178-4.022c0,0,3.756,8.183,15.201,6.853
																	L243.485,201.826z"/>
															</g>
														</g>
													</g>
												</g>
											</g>
										</g>
									</g>
								</g>
							</g>
						</g>
						<g>
							<g>
								<g>
									<g>
										<g>
											<g>
												<g>
													<g>
														<g>
															<g>
																<g>
																	<g>
																		<g>
																			<path style="fill:#263238;" d="M248.8,170.458c0.053,0.866-0.637,1.625-1.54,1.697
																				c-0.902,0.071-1.678-0.571-1.73-1.437c-0.053-0.866,0.637-1.627,1.539-1.698
																				C247.972,168.948,248.747,169.592,248.8,170.458z"/>
																		</g>
																	</g>
																</g>
															</g>
														</g>
													</g>
												</g>
											</g>
										</g>
									</g>
								</g>
							</g>
						</g>
						<g>
							<g>
								<g>
									<g>
										<g>
											<g>
												<g>
													<g>
														<g>
															<g>
																<g>
																	<g>
																		<g>
																			<g>
																				<path style="fill:#263238;" d="M249.531,164.206c-0.13,0.202-1.435,0.34-2.988,1.181
																					c-1.557,0.827-2.49,1.889-2.708,1.874c-0.105-0.002-0.011-0.291,0.392-0.76c0.395-0.465,1.138-1.11,2.107-1.631
																					c0.97-0.519,1.877-0.76,2.44-0.809C249.347,164.008,249.598,164.111,249.531,164.206z"/>
																			</g>
																		</g>
																	</g>
																</g>
															</g>
														</g>
													</g>
												</g>
											</g>
										</g>
									</g>
								</g>
							</g>
						</g>
						<g>
							<g>
								<g>
									<g>
										<g>
											<g>
												<g>
													<g>
														<g>
															<g>
																<g>
																	<g>
																		<g>
																			<path style="fill:#263238;" d="M232.203,171.33c0.053,0.866-0.637,1.625-1.541,1.697
																				c-0.902,0.072-1.677-0.57-1.73-1.437c-0.053-0.866,0.637-1.626,1.539-1.698
																				C231.375,169.82,232.15,170.464,232.203,171.33z"/>
																		</g>
																	</g>
																</g>
															</g>
														</g>
													</g>
												</g>
											</g>
										</g>
									</g>
								</g>
							</g>
						</g>
						<g>
							<g>
								<g>
									<g>
										<g>
											<g>
												<g>
													<g>
														<g>
															<g>
																<g>
																	<g>
																		<g>
																			<g>
																				<path style="fill:#263238;" d="M231.951,166.624c-0.23,0.05-1.301-0.674-3.014-1.096
																					c-1.709-0.433-3.103-0.324-3.257-0.47c-0.077-0.067,0.18-0.196,0.792-0.25c0.6-0.056,1.58-0.012,2.647,0.254
																					c1.067,0.267,1.904,0.676,2.359,0.996C231.94,166.38,232.061,166.604,231.951,166.624z"/>
																			</g>
																		</g>
																	</g>
																</g>
															</g>
														</g>
													</g>
												</g>
											</g>
										</g>
									</g>
								</g>
							</g>
						</g>
						<g>
							<g>
								<g>
									<g>
										<g>
											<g>
												<g>
													<g>
														<g>
															<g>
																<g>
																	<g>
																		<g>
																			<path style="fill:#263238;" d="M238.883,180.355c-0.011-0.1,1.083-0.318,2.856-0.591
																				c0.45-0.058,0.875-0.159,0.943-0.469c0.098-0.329-0.104-0.81-0.335-1.329c-0.452-1.081-0.926-2.214-1.423-3.401
																				c-1.979-4.844-3.423-8.83-3.228-8.909c0.196-0.078,1.958,3.784,3.937,8.628c0.477,1.195,0.933,2.333,1.367,3.423
																				c0.184,0.508,0.493,1.082,0.28,1.765c-0.113,0.34-0.438,0.594-0.725,0.679c-0.287,0.096-0.541,0.107-0.763,0.126
																				C240.003,180.418,238.892,180.455,238.883,180.355z"/>
																		</g>
																	</g>
																</g>
															</g>
														</g>
													</g>
												</g>
											</g>
										</g>
									</g>
								</g>
							</g>
						</g>
						<g>
							<g>
								<g>
									<g>
										<g>
											<g>
												<g>
													<g>
														<g>
															<path style="fill:#263238;" d="M231.977,159.797c-0.197,0.471-1.949,0.158-4.032,0.307
																c-2.086,0.107-3.786,0.632-4.04,0.189c-0.113-0.212,0.201-0.649,0.898-1.081c0.692-0.431,1.781-0.821,3.031-0.898
																c1.25-0.076,2.379,0.177,3.118,0.521C231.699,159.177,232.063,159.573,231.977,159.797z"/>
														</g>
													</g>
												</g>
											</g>
										</g>
									</g>
								</g>
							</g>
						</g>
						<g>
							<g>
								<g>
									<g>
										<g>
											<g>
												<g>
													<g>
														<g>
															<path style="fill:#263238;" d="M249.487,160.19c-0.384,0.405-1.906,0.004-3.731,0.003
																c-1.825-0.053-3.368,0.304-3.728-0.113c-0.158-0.202,0.081-0.607,0.753-0.993c0.662-0.386,1.772-0.706,3.026-0.689
																c1.255,0.019,2.345,0.372,2.985,0.777C249.44,159.581,249.656,159.992,249.487,160.19z"/>
														</g>
													</g>
												</g>
											</g>
										</g>
									</g>
								</g>
							</g>
						</g>
						<g>
							<g>
								<g>
									<path style="fill:#263238;" d="M255.789,150.776c-0.219-1.044-1.248-1.926-2.303-1.769c0.563-0.201,1.141-0.41,1.586-0.808
										c0.445-0.398,0.731-1.036,0.543-1.603c-0.294-0.889-1.432-1.072-2.334-1.328c-1.176-0.333-2.241-1.045-2.999-2.002
										c-1.093-1.38-1.514-3.176-2.458-4.663c-1.222-1.924-3.346-3.249-5.612-3.498c-2.266-0.25-4.628,0.58-6.239,2.192
										c-1.757-1.804-4.406-2.694-6.896-2.314c-2.489,0.379-4.754,2.017-5.893,4.263c-3.051-1.27-6.775-0.745-9.357,1.318
										c-2.582,2.063-3.915,5.579-3.349,8.835l7.162,4.389c0.117-2.214,2.587-3.971,4.716-3.356
										c2.161,0.625,3.544,3.128,5.788,3.298c1.747,0.133,3.234-1.221,4.926-1.675c2.054-0.55,4.222,0.272,6.074,1.316
										c1.852,1.044,3.612,2.341,5.673,2.862c2.416,0.61,4.991,0.075,7.297-0.869c0.987-0.404,1.966-0.898,2.701-1.671
										C255.549,152.92,256.008,151.82,255.789,150.776z"/>
								</g>
							</g>
						</g>
						<g>
							<g>
								<g>
									<path style="fill:#263238;" d="M218.884,150.413l32.796-0.188c-1.082-2.233-2.952-3.993-4.97-5.436
										c-4.35-3.112-9.642-4.984-14.989-4.929c-5.348,0.055-16.048,6.868-19.818,10.661c-3.017,3.035-2.926,5.587-2.926,5.587
										c-0.374,4.263,2.138,9.028,3.2,13.174c0.547,2.138,1.669,8.622,1.669,8.622s0,0,0.001,0
										c1.806-0.056,2.437-1.512,2.113-3.29l-0.532-6.995c0,0,6.021-4.536,2.889-12.443
										C217.831,154.553,216.754,151.661,218.884,150.413z"/>
								</g>
							</g>
						</g>
						<g>
							<g>
								<g>
									<path style="fill:#263238;" d="M214.916,167.153c-1.669-5.808-3.202-12.031-1.428-17.808
										c-0.325-0.013-0.649-0.027-0.974-0.04l-0.406,0.296c-1.834-0.617-4.03,0.082-5.17,1.646
										c-1.14,1.564-1.134,3.868,0.015,5.426c-1.943-0.091-3.807,1.534-3.984,3.471c-0.122,1.337,0.459,2.628,1.055,3.831
										c0.596,1.203,1.237,2.448,1.246,3.791c0.009,1.342-0.85,2.8-2.183,2.959c0.596,1.376,2.265,2.186,3.715,1.805
										c-0.46,1.135-1.252,2.134-2.252,2.841c2.136,1.455,5.069,0.958,7.393-0.174c1.379-0.671,2.732-1.628,3.294-3.054
										C215.86,170.563,215.385,168.786,214.916,167.153z"/>
								</g>
							</g>
						</g>
						<g>
							<g>
								<g>
									<path style="fill:#FFBE9D;" d="M214.38,173.92c-0.198-0.08-7.96-2.133-7.507,5.72c0.453,7.854,8.245,5.779,8.245,5.553
										C215.119,184.967,214.38,173.92,214.38,173.92z"/>
								</g>
							</g>
						</g>
						<g>
							<g>
								<g>
									<path style="fill:#EB996E;" d="M213.24,182.337c-0.036-0.023-0.132,0.104-0.357,0.223c-0.219,0.116-0.603,0.21-1.021,0.08
										c-0.847-0.257-1.622-1.533-1.742-2.947c-0.061-0.713,0.049-1.403,0.27-1.981c0.207-0.588,0.555-1.011,0.968-1.109
										c0.41-0.12,0.72,0.113,0.829,0.328c0.118,0.214,0.077,0.373,0.12,0.384c0.023,0.018,0.161-0.142,0.079-0.462
										c-0.042-0.154-0.144-0.334-0.337-0.474c-0.197-0.143-0.479-0.205-0.768-0.156c-0.603,0.077-1.116,0.665-1.359,1.3
										c-0.276,0.639-0.417,1.415-0.348,2.216c0.142,1.58,1.037,3.014,2.192,3.276c0.561,0.112,1.012-0.081,1.239-0.28
										C213.236,182.527,213.268,182.349,213.24,182.337z"/>
								</g>
							</g>
						</g>
						<g>
							<g>
								<g>
									<path style="fill:#455A64;" d="M206.225,167.406c-0.023,0.016-0.22-0.296-0.144-0.913c0.074-0.601,0.508-1.472,1.468-2.047
										c0.95-0.579,2.263-0.72,3.598-0.869c1.321-0.143,2.83-0.518,3.585-1.821c0.755-1.269,0.776-2.822,0.615-4.122
										c-0.187-1.319-0.536-2.517-0.709-3.548c-0.415-2.079-0.017-3.405,0.054-3.37c0.094,0.014-0.14,1.287,0.37,3.283
										c0.222,1.002,0.612,2.167,0.843,3.556c0.194,1.369,0.223,3.032-0.652,4.521c-0.436,0.732-1.134,1.29-1.871,1.584
										c-0.739,0.3-1.483,0.403-2.17,0.477c-1.372,0.12-2.581,0.216-3.453,0.688c-0.862,0.454-1.313,1.194-1.444,1.715
										C206.176,167.074,206.28,167.396,206.225,167.406z"/>
								</g>
							</g>
						</g>
						<g>
							<g>
								<g>
									<path style="fill:#455A64;" d="M204.33,163.981c-0.031,0.012-0.173-0.224-0.242-0.71c-0.065-0.478-0.028-1.227,0.391-2.021
										c0.209-0.392,0.514-0.79,0.933-1.121c0.413-0.345,0.974-0.558,1.508-0.704c0.535-0.156,1.091-0.294,1.491-0.612
										c0.399-0.315,0.579-0.836,0.591-1.439c0.023-0.599-0.068-1.228-0.054-1.859c0.009-0.624,0.082-1.223,0.201-1.783
										c0.245-1.122,0.651-2.069,1.126-2.807c0.474-0.76,1.231-1.132,1.739-1.105c0.52,0.005,0.738,0.239,0.714,0.259
										c-0.021,0.048-0.262-0.089-0.696-0.021c-0.435,0.055-1.004,0.393-1.391,1.098c-0.389,0.699-0.743,1.633-0.94,2.687
										c-0.097,0.529-0.154,1.093-0.154,1.677c-0.008,0.579,0.088,1.195,0.065,1.878c-0.002,0.666-0.248,1.449-0.83,1.885
										c-0.568,0.428-1.191,0.542-1.714,0.686c-1.076,0.21-1.795,0.809-2.216,1.496
										C204.022,162.872,204.448,163.986,204.33,163.981z"/>
								</g>
							</g>
						</g>
						<g>
							<g>
								<g>
									<path style="fill:#455A64;" d="M250.289,143.273c0.049,0.011-0.593,0.428-1.622-0.056
										c-0.504-0.224-1.001-0.697-1.483-1.263c-0.481-0.573-1.028-1.185-1.824-1.618c-1.534-0.872-4.017-1.098-5.923,0.392
										c-0.972,0.705-1.831,1.688-2.961,2.511c-0.565,0.404-1.221,0.764-1.966,0.909c-0.744,0.146-1.534,0.042-2.236-0.212
										c-1.416-0.508-2.533-1.376-3.755-1.819c-1.217-0.471-2.486-0.679-3.688-0.664c-2.423,0.006-4.518,0.918-5.949,2.046
										c-1.455,1.126-2.306,2.395-2.808,3.291c-0.489,0.912-0.666,1.467-0.717,1.45c-0.02-0.006,0.007-0.149,0.078-0.418
										c0.074-0.268,0.21-0.655,0.426-1.139c0.448-0.95,1.269-2.303,2.751-3.522c1.455-1.221,3.654-2.235,6.21-2.272
										c1.269-0.032,2.613,0.175,3.911,0.668c1.318,0.479,2.458,1.35,3.742,1.801c0.638,0.229,1.295,0.311,1.922,0.191
										c0.626-0.119,1.204-0.426,1.731-0.799c1.056-0.755,1.936-1.739,2.977-2.479c1.028-0.774,2.29-1.149,3.432-1.136
										c1.15,0.006,2.202,0.33,3.038,0.824c0.847,0.492,1.427,1.194,1.871,1.774c0.455,0.582,0.883,1.033,1.329,1.271
										C249.679,143.514,250.292,143.214,250.289,143.273z"/>
								</g>
							</g>
						</g>
					</g>
				</g>
				<g>
					<g>
						<g>
							<g>
								<g>
									<g>
										<g>
											<g>
												<g>
													<g>
														<g>
															<g>
																<g>
																	<g>
																		<path style="fill:#263238;" d="M234.516,182.413c0.249-0.057,0.535,1.622,2.173,2.572
																			c1.636,0.954,3.394,0.464,3.447,0.697c0.041,0.102-0.344,0.393-1.096,0.541c-0.737,0.15-1.859,0.094-2.861-0.487
																			c-1-0.583-1.542-1.495-1.715-2.174C234.283,182.87,234.4,182.423,234.516,182.413z"/>
																	</g>
																</g>
															</g>
														</g>
													</g>
												</g>
											</g>
										</g>
									</g>
								</g>
							</g>
						</g>
					</g>
				</g>
			</g>
			<g>
				<g>
					<path style="fill:#FF725E;" d="M338.005,338.661c-2.971-2.648-7.076-3.877-11.049-3.645l-6.756,21.476
						c4.952,0.218,9.892,2.772,14.673,1.463c3.839-1.051,6.75-4.657,7.284-8.601C342.691,345.409,340.976,341.308,338.005,338.661z"
						/>
				</g>
				<g>
					<g>
						<path style="fill:#F5F5F5;" d="M327.076,334.51c0.014-0.174,0.734-0.308,2.047-0.295c1.305,0.036,3.242,0.185,5.531,1.042
							c2.295,0.85,4.798,2.587,6.735,5.23c0.969,1.32,1.779,2.893,2.247,4.658c0.476,1.762,0.56,3.727,0.167,5.634
							c-0.391,1.91-1.23,3.702-2.456,5.127c-1.226,1.439-2.799,2.434-4.36,3.024c-3.153,1.183-6.183,0.995-8.501,0.549
							c-2.342-0.46-4.104-1.143-5.298-1.645c-1.191-0.514-1.814-0.891-1.762-1.062c0.052-0.174,0.781-0.123,2.048,0.089
							c1.266,0.2,3.071,0.595,5.269,0.794c2.18,0.196,4.823,0.13,7.343-0.949c1.246-0.536,2.409-1.342,3.306-2.439
							c0.906-1.097,1.55-2.497,1.86-4.011c0.647-3.053-0.276-6.096-1.83-8.395c-1.555-2.325-3.593-3.98-5.506-4.917
							c-1.931-0.964-3.711-1.39-4.93-1.725C327.758,334.902,327.061,334.694,327.076,334.51z"/>
					</g>
				</g>
				<g>
					<g>
						<g>
							<g>
								<g>
									<g>
										<g>
											<g>
												<g>
													<g>
														<g>
															<path style="fill:#FF725E;" d="M264.454,415.065l-14.701,41.187l51.149,18.552
																c1.473-4.994-21.431-24.402-21.431-24.402l10.502-26.003L264.454,415.065z"/>
														</g>
													</g>
												</g>
											</g>
										</g>
									</g>
								</g>
							</g>
						</g>
						<g style="opacity:0.6;">
							<g>
								<g>
									<g>
										<g>
											<g>
												<g>
													<g>
														<g>
															<g>
																<path style="fill:#FFFFFF;" d="M264.46,442.449c-1.088-0.088-2.176,0.777-2.309,1.86
																	c-0.133,1.083,0.737,2.197,1.823,2.305c1.086,0.107,2.424-0.891,2.435-1.982c0.011-1.092-1.082-2.344-2.163-2.187"
																	/>
															</g>
														</g>
													</g>
												</g>
											</g>
										</g>
									</g>
								</g>
							</g>
						</g>
						<g>
							<g>
								<g>
									<g>
										<g>
											<g>
												<g>
													<g>
														<g>
															<path style="fill:#FFFFFF;" d="M249.754,456.252l1.484-4.157l48.587,19.381c0,0,1.918,1.817,1.079,3.328
																L249.754,456.252z"/>
														</g>
													</g>
												</g>
											</g>
										</g>
									</g>
								</g>
							</g>
						</g>
						<g>
							<g>
								<g>
									<g>
										<g>
											<g>
												<g>
													<g>
														<g>
															<g>
																<path style="fill:#263238;" d="M280.396,450.443c-0.099,0.247-1.389-0.093-2.909,0.265
																	c-1.53,0.317-2.555,1.169-2.749,0.987c-0.213-0.132,0.702-1.49,2.549-1.89
																	C279.131,449.387,280.533,450.233,280.396,450.443z"/>
															</g>
														</g>
													</g>
												</g>
											</g>
										</g>
									</g>
								</g>
							</g>
						</g>
						<g>
							<g>
								<g>
									<g>
										<g>
											<g>
												<g>
													<g>
														<g>
															<g>
																<path style="fill:#263238;" d="M284.956,454.607c-0.03,0.263-1.266,0.295-2.498,1.044
																	c-1.253,0.712-1.882,1.777-2.126,1.676c-0.249-0.046,0.109-1.571,1.658-2.473
																	C283.53,453.939,285.037,454.367,284.956,454.607z"/>
															</g>
														</g>
													</g>
												</g>
											</g>
										</g>
									</g>
								</g>
							</g>
						</g>
						<g>
							<g>
								<g>
									<g>
										<g>
											<g>
												<g>
													<g>
														<g>
															<g>
																<path style="fill:#263238;" d="M285.674,462.133c-0.246-0.029-0.141-1.403,0.996-2.538
																	c1.13-1.144,2.503-1.256,2.533-1.01c0.067,0.257-0.958,0.715-1.878,1.662
																	C286.385,461.171,285.931,462.198,285.674,462.133z"/>
															</g>
														</g>
													</g>
												</g>
											</g>
										</g>
									</g>
								</g>
							</g>
						</g>
						<g>
							<g>
								<g>
									<g>
										<g>
											<g>
												<g>
													<g>
														<g>
															<g>
																<path style="fill:#263238;" d="M282.132,444.251c-0.187,0.19-1.208-0.57-2.655-0.987
																	c-1.438-0.445-2.709-0.37-2.761-0.631c-0.079-0.233,1.329-0.768,3.026-0.254
																	C281.442,442.879,282.326,444.099,282.132,444.251z"/>
															</g>
														</g>
													</g>
												</g>
											</g>
										</g>
									</g>
								</g>
							</g>
						</g>
						<g>
							<g>
								<g>
									<g>
										<g>
											<g>
												<g>
													<g>
														<g>
															<g>
																<path style="fill:#263238;" d="M283.115,437.74c-0.034,0.104-1.078-0.099-2.557-0.943
																	c-0.736-0.42-1.567-1.013-2.381-1.795c-0.406-0.392-0.808-0.83-1.188-1.314c-0.18-0.237-0.405-0.491-0.555-0.883
																	c-0.182-0.361-0.099-1.08,0.367-1.37c0.404-0.298,0.929-0.3,1.301-0.174c0.382,0.124,0.66,0.311,0.913,0.481
																	c0.52,0.345,0.985,0.727,1.395,1.124c0.816,0.799,1.406,1.649,1.8,2.407c0.788,1.529,0.855,2.609,0.752,2.626
																	c-0.143,0.041-0.437-0.95-1.316-2.295c-0.439-0.67-1.039-1.415-1.818-2.116c-0.392-0.348-0.827-0.683-1.307-0.987
																	c-0.49-0.339-0.95-0.51-1.176-0.319c-0.084,0.073-0.104,0.107-0.048,0.307c0.064,0.189,0.232,0.411,0.409,0.646
																	c0.345,0.459,0.708,0.881,1.073,1.264c0.732,0.766,1.475,1.378,2.132,1.847
																	C282.229,437.188,283.168,437.607,283.115,437.74z"/>
															</g>
														</g>
													</g>
												</g>
											</g>
										</g>
									</g>
								</g>
							</g>
						</g>
						<g>
							<g>
								<g>
									<g>
										<g>
											<g>
												<g>
													<g>
														<g>
															<g>
																<path style="fill:#263238;" d="M282.66,437.98c-0.103,0.007-0.273-1.068,0.222-2.719
																	c0.249-0.818,0.684-1.76,1.367-2.678c0.343-0.456,0.748-0.905,1.216-1.319c0.483-0.397,1.094-0.941,2.103-0.701
																	c0.513,0.165,0.79,0.712,0.811,1.102c0.043,0.408-0.031,0.717-0.078,1.035c-0.123,0.632-0.346,1.213-0.624,1.726
																	c-0.556,1.031-1.33,1.774-2.054,2.25c-1.48,0.963-2.631,0.883-2.621,0.791c-0.038-0.156,1.008-0.322,2.234-1.318
																	c0.605-0.491,1.24-1.198,1.683-2.113c0.222-0.456,0.397-0.961,0.49-1.497c0.117-0.573,0.072-1.085-0.151-1.103
																	c-0.253-0.096-0.834,0.156-1.2,0.514c-0.429,0.363-0.808,0.757-1.138,1.159c-0.656,0.808-1.117,1.642-1.423,2.376
																	C282.882,436.96,282.809,437.991,282.66,437.98z"/>
															</g>
														</g>
													</g>
												</g>
											</g>
										</g>
									</g>
								</g>
							</g>
						</g>
					</g>
				</g>
				<g>
					<path style="fill:#263238;" d="M214.895,305.057c-7.759,0.18-15.119,1.276-20.463,6.904
						c-7.088,7.464-15.853,18.096-16.351,25.47c-0.744,11.021,5.905,14.297,10.759,16.984c2.147,1.189,4.595,1.724,7.047,1.63
						l89.681-0.681l2.815-15.19l-58.003-14.295l2.409-21.831L214.895,305.057z"/>
				</g>
				<g>
					<path style="fill:#263238;" d="M232.791,304.05l28.212-1.299c0,0,48.735,2.709,59.13,12.238
						c10.395,9.529,9.096,20.358,5.631,30.753c-3.465,10.395-34.001,76.882-34.001,76.882s2.476,4.227,1.083,8.446
						c-2.156,6.532-7.964,7.585-7.964,7.585l-27.12-9.967c0,0-3.682-1.299-1.083-4.765c2.599-3.465,4.331-4.115,4.331-4.115v-6.93
						c0,0,9.529-17.326,10.395-19.708c0.866-2.382,10-37.644,10-37.644l6.067-10.427c0,0-14.673-6.899-27.39-11.899l-29.7-7.32
						L232.791,304.05z"/>
				</g>
				<g>
					<g>
						<path style="fill:#455A64;" d="M278.549,427.432c-0.055,0.066-0.91-0.611-2.38-1.56c-1.467-0.951-3.585-2.131-6.075-3.082
							c-2.494-0.944-4.86-1.469-6.589-1.733c-1.729-0.267-2.818-0.329-2.815-0.415c0-0.058,1.097-0.127,2.862,0.049
							c1.762,0.173,4.188,0.65,6.726,1.611c2.535,0.968,4.665,2.223,6.097,3.264C277.813,426.608,278.587,427.388,278.549,427.432z"
							/>
					</g>
				</g>
				<g>
					<g>
						<path style="fill:#455A64;" d="M292.103,422.671c-0.054,0.045-0.661-0.585-1.575-1.659c-0.915-1.074-2.132-2.596-3.408-4.329
							c-1.276-1.734-2.367-3.35-3.12-4.543c-0.753-1.193-1.174-1.959-1.115-1.997c0.061-0.04,0.59,0.654,1.42,1.79
							c0.947,1.3,2.034,2.793,3.235,4.441c1.216,1.636,2.318,3.118,3.277,4.409C291.654,421.913,292.159,422.624,292.103,422.671z"
							/>
					</g>
				</g>
				<g>
					<g>
						<path style="fill:#455A64;" d="M302.042,335.579c0.016,0.085-0.996,0.3-2.57,0.823c-1.573,0.519-3.695,1.404-5.839,2.737
							c-2.141,1.341-3.867,2.859-5.024,4.045c-1.16,1.185-1.798,1.999-1.867,1.947c-0.047-0.033,0.488-0.93,1.598-2.198
							c1.104-1.268,2.831-2.866,5.018-4.235c2.19-1.362,4.384-2.212,6.008-2.648C300.992,335.61,302.034,335.522,302.042,335.579z"
							/>
					</g>
				</g>
				<g>
					<g>
						<path style="fill:#455A64;" d="M274.3,382.66c-0.017-0.005,0.021-0.206,0.111-0.586c0.109-0.433,0.247-0.98,0.416-1.653
							c0.402-1.496,0.952-3.547,1.625-6.052c1.437-5.157,3.391-12.167,5.551-19.913c1.125-3.883,2.091-7.588,3.176-10.942
							c1.261-3.327,3.258-5.893,5.106-7.791c1.865-1.904,3.61-3.184,4.848-3.996c0.627-0.398,1.117-0.7,1.463-0.881
							c0.342-0.188,0.526-0.279,0.535-0.264c0.024,0.04-0.679,0.461-1.883,1.312c-1.196,0.859-2.891,2.172-4.697,4.084
							c-1.791,1.904-3.72,4.454-4.922,7.703c-1.041,3.306-2.006,7.054-3.127,10.924c-2.215,7.728-4.221,14.721-5.696,19.866
							c-0.738,2.486-1.343,4.521-1.784,6.005c-0.208,0.662-0.377,1.2-0.51,1.626C274.39,382.473,274.318,382.665,274.3,382.66z"/>
					</g>
				</g>
				<g>
					<g>
						<path style="fill:#455A64;" d="M249.346,331.87c-0.143,0.013-0.736-5.262-1.324-11.78c-0.588-6.521-0.949-11.815-0.806-11.828
							c0.143-0.013,0.736,5.261,1.324,11.781C249.129,326.561,249.489,331.857,249.346,331.87z"/>
					</g>
				</g>
				<g>
					<g>
						<path style="fill:#455A64;" d="M202.391,345.953c-0.079,0.039-0.515-0.815-1.398-2.066c-0.878-1.251-2.263-2.866-4.097-4.305
							c-1.84-1.432-3.742-2.385-5.169-2.934c-1.427-0.554-2.361-0.77-2.342-0.856c0.009-0.055,0.976,0.034,2.466,0.509
							c1.487,0.47,3.474,1.398,5.365,2.871c1.885,1.478,3.267,3.182,4.083,4.511C202.122,345.013,202.442,345.931,202.391,345.953z"
							/>
					</g>
				</g>
				<g>
					<g>
						<path style="fill:#455A64;" d="M219.675,326.804c-0.05,0.08-1.246-0.687-3.318-1.629c-2.066-0.946-5.057-1.983-8.49-2.482
							c-3.437-0.487-6.598-0.332-8.847-0.005c-2.253,0.322-3.616,0.721-3.642,0.63c-0.01-0.034,0.322-0.159,0.935-0.355
							c0.61-0.206,1.516-0.43,2.649-0.639c2.262-0.425,5.482-0.642,8.979-0.146c3.494,0.507,6.523,1.622,8.574,2.665
							c1.028,0.519,1.835,0.989,2.362,1.358C219.41,326.561,219.695,326.773,219.675,326.804z"/>
					</g>
				</g>
				<g>
					<g>
						<path style="fill:#455A64;" d="M287.227,340.16c-0.004,0.017-0.246-0.023-0.703-0.116c-0.506-0.11-1.168-0.253-1.991-0.432
							c-1.785-0.401-4.267-0.959-7.31-1.643c-6.173-1.383-14.712-3.236-24.178-5.112c-9.47-1.873-18.072-3.413-24.306-4.487
							c-3.074-0.527-5.581-0.957-7.384-1.266c-0.83-0.149-1.496-0.268-2.006-0.359c-0.458-0.088-0.697-0.143-0.694-0.16
							s0.247,0.002,0.71,0.057c0.514,0.067,1.185,0.154,2.021,0.263c1.754,0.237,4.287,0.612,7.413,1.103
							c6.252,0.981,14.871,2.465,24.347,4.339c9.473,1.877,18.006,3.789,24.16,5.264c3.077,0.737,5.563,1.355,7.274,1.804
							c0.815,0.218,1.469,0.393,1.969,0.527C286.997,340.068,287.231,340.143,287.227,340.16z"/>
					</g>
				</g>
				<g>
					<g>
						<path style="fill:#455A64;" d="M230.382,328.455c-0.1,0.03-0.31-1.185-1.242-2.866c-0.472-0.833-1.153-1.755-2.052-2.654
							c-0.889-0.905-1.98-1.806-3.14-2.715c-2.341-1.794-4.719-3.06-6.424-3.99c-1.715-0.919-2.778-1.493-2.744-1.561
							c0.03-0.061,1.147,0.395,2.911,1.233c1.753,0.849,4.185,2.075,6.575,3.905c1.178,0.924,2.268,1.843,3.168,2.795
							c0.905,0.942,1.586,1.928,2.031,2.813c0.443,0.888,0.681,1.657,0.801,2.193C230.385,328.145,230.413,328.448,230.382,328.455z
							"/>
					</g>
				</g>
				<g>
					<g>
						<path style="fill:#263238;" d="M330.267,342.015c0.115,0.111-1.385,1.627-2.553,3.932c-1.192,2.293-1.55,4.396-1.707,4.367
							c-0.129,0,0.005-2.216,1.244-4.605C328.469,343.312,330.192,341.91,330.267,342.015z"/>
					</g>
				</g>
			</g>
		</g>
		<g style="opacity:0.3;">
			<g>
				<path d="M266.079,239.535l6.419,45.22l0.321,0.723C274.335,269.921,272,254.002,266.079,239.535z"/>
			</g>
		</g>
		<g>
			<g>
				<path style="fill:#E0E0E0;" d="M300.651,265.522l-20.874,36.507l-51.431,1.118l-0.128,2.329l49.799-0.37l1.579-0.054
					l52.588,0.104l10.626-18.327l13.575-19.456c0.89-1.275-0.027-3.024-1.582-3.019l-52.493,0.2
					C301.624,264.558,300.991,264.927,300.651,265.522z"/>
			</g>
			<g>
				<g>
					<path style="fill:#FFBE9D;" d="M342.81,286.829c0,0,2.702,2.476,2.276,4.581c-0.427,2.104-0.284,3.669-2.276,3.811
						c0,0,0.142,2.702-2.702,3.129c0,0,0.61,3.299-3.23,3.868c0,0-1.179,3.528-3.596,2.675c-2.418-0.853-3.982-1.849-3.982-1.849
						l-0.711-1.28c0,0-3.562-1.339-2.685-3.351c0.533-1.221,2.375-1.538,2.375-1.538s-0.766-1.791,0.228-3.128
						c0.854-1.148,3.635-0.199,3.635-0.199s-0.164-1.482,0.881-2.722c0.947-1.123,5.374,1.928,5.374,1.928l2.415-2.885
						L342.81,286.829z"/>
				</g>
				<g>
					<g>
						<path style="fill:#EB996E;" d="M336.877,302.218c-0.076,0.122-2.063-0.975-4.437-2.45c-2.375-1.476-4.238-2.771-4.163-2.893
							c0.076-0.122,2.062,0.975,4.437,2.451C335.089,300.8,336.953,302.096,336.877,302.218z"/>
					</g>
				</g>
				<g>
					<g>
						<path style="fill:#EB996E;" d="M340.108,298.35c-0.074,0.123-1.918-0.852-4.118-2.178c-2.2-1.327-3.923-2.501-3.849-2.624
							c0.074-0.123,1.918,0.852,4.118,2.178C338.459,297.052,340.182,298.227,340.108,298.35z"/>
					</g>
				</g>
				<g>
					<g>
						<path style="fill:#EB996E;" d="M335.706,291.11c0.08-0.147,1.731,0.723,3.651,1.939c1.922,1.227,3.471,2.181,3.434,2.278
							c-0.073,0.17-1.79-0.609-3.71-1.836C337.152,292.27,335.649,291.217,335.706,291.11z"/>
					</g>
				</g>
			</g>
			<g>
				<g>
					<path style="fill:#263238;" d="M356.393,265.738c0,0.009-0.085,0.018-0.252,0.027c-0.197,0.007-0.44,0.016-0.738,0.026
						c-0.691,0.012-1.639,0.028-2.84,0.049c-2.51,0.02-6.067,0.048-10.443,0.083c-8.856,0.02-21.018,0.047-34.453,0.076
						c-0.841,0-1.677,0-2.508,0c-0.789-0.06-1.504,0.286-1.912,0.903c-0.792,1.427-1.572,2.833-2.338,4.215
						c-1.537,2.774-3.02,5.451-4.433,8.002c-2.831,5.086-5.382,9.67-7.533,13.534c-2.145,3.814-3.888,6.914-5.118,9.102
						c-0.598,1.04-1.07,1.862-1.414,2.462c-0.153,0.256-0.278,0.464-0.379,0.634c-0.088,0.141-0.137,0.212-0.145,0.207
						c-0.008-0.004,0.026-0.083,0.098-0.233c0.089-0.176,0.199-0.393,0.334-0.659c0.323-0.611,0.767-1.449,1.329-2.51
						c1.195-2.207,2.889-5.335,4.973-9.183c2.123-3.88,4.641-8.482,7.436-13.589c1.405-2.556,2.879-5.237,4.407-8.016
						c0.771-1.394,1.555-2.812,2.35-4.251c0.486-0.776,1.471-1.214,2.344-1.138c0.831,0,1.667,0,2.508,0
						c13.435,0.03,25.598,0.057,34.453,0.076c4.376,0.035,7.933,0.063,10.443,0.083c1.2,0.021,2.148,0.037,2.84,0.049
						c0.299,0.01,0.541,0.019,0.738,0.026C356.307,265.721,356.393,265.729,356.393,265.738z"/>
				</g>
			</g>
			<g>
				<path style="fill:#FFFFFF;" d="M319.386,284.091c-0.929,1.03-0.951,2.524-0.049,3.338c0.902,0.814,2.386,0.638,3.315-0.392
					c0.929-1.03,0.951-2.524,0.049-3.338C321.799,282.886,320.315,283.061,319.386,284.091z"/>
			</g>
		</g>
	</g>
	<g style="opacity:0.3;">
		<g>
			<path d="M173.395,269.972c-0.446,0.18-0.954,0.477-0.959,0.958c-0.004,0.389,0.358,0.703,0.739,0.785
				c0.381,0.082,1.756-0.488,2.136-0.572c5.405-1.194,9.862-0.05,15.014,1.974l0.167-0.171
				C188.436,268.608,179.21,267.63,173.395,269.972z"/>
		</g>
	</g>
</g>
<g id="Floor">
	<g>
		<g>
			<path style="fill:#263238;" d="M452.021,472.958c0,0.144-90.455,0.26-202.012,0.26c-111.595,0-202.031-0.117-202.031-0.26
				s90.436-0.26,202.031-0.26C361.566,472.698,452.021,472.814,452.021,472.958z"/>
		</g>
	</g>
</g>
<g id="Ribbon">
	<g>
		<g>
			<path style="fill:#455A64;" d="M145.418,154.208c0.173,0.173,33.379-11.242,33.379-11.242l-12.768-29.302l-29.559,11.301
				l16.26,9.343L145.418,154.208z"/>
		</g>
		<g>
			<path style="fill:#455A64;" d="M160.994,122.495V82.596c0,0,45.809-8.374,78.811-7.881c33.002,0.493,66.99,5.911,66.99,5.911
				v38.303C306.795,118.929,203.355,109.688,160.994,122.495z"/>
		</g>
		<g>
			<path style="fill:#263238;" d="M160.756,122.528l18.041,20.611v-24.21C178.796,118.929,163.707,120.734,160.756,122.528z"/>
		</g>
		<g>
			<g>
				<path style="fill:#263238;" d="M160.994,82.594c0.144,0.001,0.207,8.941,0.141,19.967c-0.066,11.029-0.236,19.966-0.38,19.966
					c-0.144-0.001-0.207-8.94-0.141-19.969C160.68,91.533,160.85,82.594,160.994,82.594z"/>
			</g>
		</g>
		<g>
			<path style="fill:#455A64;" d="M322.322,151.148c-0.173,0.173-33.379-11.242-33.379-11.242l12.768-29.302l29.559,11.301
				l-16.26,9.343L322.322,151.148z"/>
		</g>
		<g>
			<path style="fill:#263238;" d="M306.983,119.468l-18.041,20.611V117.62C294.956,117.821,300.97,118.437,306.983,119.468z"/>
		</g>
		<g>
			<g>
				<path style="fill:#263238;" d="M306.795,80.628c0.144-0.001,0.303,8.694,0.355,19.419c0.052,10.728-0.022,19.422-0.166,19.423
					c-0.144,0.001-0.302-8.693-0.355-19.421C306.577,89.325,306.651,80.629,306.795,80.628z"/>
			</g>
		</g>
		<g>
			<path style="fill:#FFFFFF;" d="M186.828,100.091c-0.441-3.181,1.686-5.796,4.972-6.252c1.824-0.253,3.439,0.199,4.601,1.268
				l-1.367,1.665c-0.821-0.716-1.77-1.015-2.825-0.868c-1.975,0.274-3.184,1.855-2.909,3.845c0.276,1.99,1.871,3.183,3.845,2.909
				c1.055-0.146,1.886-0.692,2.48-1.619l1.769,1.229c-0.826,1.359-2.256,2.234-4.096,2.489
				C190.026,105.21,187.269,103.272,186.828,100.091z"/>
			<path style="fill:#FFFFFF;" d="M197.742,98.588c-0.324-3.148,1.889-5.732,5.234-6.076c3.33-0.342,6.035,1.72,6.36,4.883
				c0.326,3.164-1.904,5.733-5.234,6.076C200.758,103.815,198.066,101.736,197.742,98.588z M206.855,97.651
				c-0.207-2.013-1.771-3.245-3.663-3.05c-1.892,0.194-3.173,1.718-2.966,3.731c0.207,2.013,1.771,3.244,3.664,3.05
				C205.78,101.187,207.062,99.664,206.855,97.651z"/>
			<path style="fill:#FFFFFF;" d="M221.309,101.92l-0.425-6.375l-2.79,5.454l-1.108,0.071l-3.441-4.917l0.401,6.24l-2.308,0.148
				l-0.684-10.628l2.034-0.131l4.403,6.349l3.492-6.856l2.02-0.13l0.714,10.626L221.309,101.92z"/>
			<path style="fill:#FFFFFF;" d="M235.076,94.644c0.066,2.373-1.672,3.898-4.517,3.979l-2.145,0.06l0.082,2.937l-2.464,0.069
				l-0.299-10.649l4.61-0.129C233.188,90.83,235.009,92.256,235.076,94.644z M232.581,94.714c-0.033-1.171-0.813-1.835-2.319-1.793
				l-2.008,0.057l0.104,3.697l2.008-0.057C231.872,96.576,232.613,95.87,232.581,94.714z"/>
			<path style="fill:#FFFFFF;" d="M236.948,90.774h2.464v8.641h5.34v2.008h-7.804V90.774z"/>
			<path style="fill:#FFFFFF;" d="M254.354,99.716l-0.057,1.978l-8.246-0.24l0.31-10.649l8.048,0.234l-0.058,1.978l-5.598-0.163
				l-0.067,2.313l4.945,0.144l-0.056,1.917l-4.945-0.144l-0.072,2.465L254.354,99.716z"/>
			<path style="fill:#FFFFFF;" d="M258.907,93.303l-3.4-0.205l0.121-2.004l9.262,0.559l-0.121,2.004l-3.401-0.205l-0.52,8.623
				l-2.46-0.148L258.907,93.303z"/>
			<path style="fill:#FFFFFF;" d="M273.859,101.175l-0.183,1.97l-8.212-0.761l0.982-10.606l8.016,0.743l-0.183,1.97l-5.576-0.517
				l-0.213,2.303l4.924,0.456l-0.177,1.909l-4.924-0.456l-0.228,2.455L273.859,101.175z"/>
			<path style="fill:#FFFFFF;" d="M276.937,92.786l4.794,0.641c3.452,0.461,5.541,2.858,5.114,6.054
				c-0.427,3.196-3.071,4.96-6.525,4.499l-4.794-0.641L276.937,92.786z M280.468,101.959c2.096,0.28,3.635-0.788,3.904-2.808
				c0.271-2.021-0.935-3.455-3.03-3.735l-2.23-0.298l-0.874,6.543L280.468,101.959z"/>
		</g>
	</g>
</g>
<g id="Confetti">
	<g>
		<polygon style="fill:#455A64;" points="327.293,84.256 329.906,87.33 337.285,84.256 335.133,81.028 		"/>
	</g>
	<g>
		<path style="fill:#FF725E;" d="M323.911,69.652c0,2.123-1.721,3.843-3.843,3.843c-2.122,0-3.843-1.721-3.843-3.843
			c0-2.122,1.721-3.843,3.843-3.843C322.191,65.809,323.911,67.53,323.911,69.652z"/>
	</g>
	<g>
		<path style="fill:#FF725E;" d="M237.889,126.928c0,1.061-0.86,1.922-1.921,1.922c-1.061,0-1.922-0.86-1.922-1.922
			c0-1.061,0.86-1.922,1.922-1.922C237.029,125.007,237.889,125.867,237.889,126.928z"/>
	</g>
	<g>
		<path style="fill:#FF725E;" d="M148.436,98.07c0,0.805-0.653,1.458-1.458,1.458c-0.805,0-1.458-0.653-1.458-1.458
			c0-0.805,0.653-1.458,1.458-1.458C147.783,96.612,148.436,97.265,148.436,98.07z"/>
	</g>
	<g>
		<polygon style="fill:#455A64;" points="143.017,81.996 147.32,82.258 149.364,73.804 145.345,73.967 		"/>
	</g>
	<g>
		<polygon style="fill:#FF725E;" points="277.421,149.527 278.868,153.588 287.446,152.152 285.719,148.52 		"/>
	</g>
	<g>
		<polygon style="fill:#455A64;" points="190.636,126.101 187.986,129.502 193.802,135.969 195.94,132.562 		"/>
	</g>
</g>
<g id="Stars">
	<g>
		<g>
			<polygon style="fill:#FF725E;" points="180.365,46.225 190.524,56.582 204.815,51.181 205.38,54.726 199.19,67.402 
				204.895,76.864 204.417,79.688 190.588,77.36 182.413,86.335 180.494,84.876 178.8,73.466 165.898,66.748 165.333,64.145 
				178.323,60.588 			"/>
		</g>
		<g style="opacity:0.3;">
			<polygon points="180.365,46.225 190.524,56.582 204.815,51.181 205.38,54.726 199.19,67.402 204.895,76.864 204.417,79.688 
				190.588,77.36 182.413,86.335 180.494,84.876 178.8,73.466 165.898,66.748 165.333,64.145 178.323,60.588 			"/>
		</g>
		<g>
			<polygon style="fill:#FF725E;" points="180.365,43.32 190.524,53.678 204.815,51.181 198.104,64.043 204.895,76.864 
				190.588,74.456 180.494,84.876 178.363,70.525 165.333,64.145 178.323,57.684 			"/>
		</g>
	</g>
	<g>
		<g>
			<polygon style="fill:#FF725E;" points="285.615,46.225 275.456,56.582 261.165,51.181 260.6,54.726 266.79,67.402 
				261.085,76.864 261.563,79.688 275.392,77.36 283.567,86.335 285.486,84.876 287.18,73.466 300.082,66.748 300.647,64.145 
				287.657,60.588 			"/>
		</g>
		<g style="opacity:0.3;">
			<polygon points="285.615,46.225 275.456,56.582 261.165,51.181 260.6,54.726 266.79,67.402 261.085,76.864 261.563,79.688 
				275.392,77.36 283.567,86.335 285.486,84.876 287.18,73.466 300.082,66.748 300.647,64.145 287.657,60.588 			"/>
		</g>
		<g>
			<polygon style="fill:#FF725E;" points="285.615,43.32 275.456,53.678 261.165,51.181 267.876,64.043 261.085,76.864 
				275.392,74.456 285.486,84.876 287.617,70.525 300.647,64.145 287.657,57.684 			"/>
		</g>
	</g>
	<g>
		<g>
			<polygon style="fill:#FF725E;" points="232.657,28.06 241.106,44.566 260.6,43.42 259.939,47.96 247.559,61.068 250.915,74.785 
				249.257,78.049 233.271,69.941 219.878,77.777 218.092,75.267 220.371,60.7 207.189,47.59 207.491,44.199 224.695,44.807 			"/>
		</g>
		<g style="opacity:0.3;">
			<polygon points="232.657,28.06 241.106,44.566 260.6,43.42 259.939,47.96 247.559,61.068 250.915,74.785 249.257,78.049 
				233.271,69.941 219.878,77.777 218.092,75.267 220.371,60.7 207.189,47.59 207.491,44.199 224.695,44.807 			"/>
		</g>
		<g>
			<polygon style="fill:#FF725E;" points="233.763,24.516 242.212,41.023 260.6,43.42 247.513,56.557 250.915,74.785 
				234.377,66.398 218.092,75.267 220.958,56.946 207.491,44.199 225.801,41.263 			"/>
		</g>
	</g>
</g>
<g id="Speech_Bubble">
	<g>
		<g>
			<g>
				<g>
					<g>
						<path style="fill:#FAFAFA;" d="M267.429,172.631l14.124,1.556c3.399-4.84,8.135-8.83,13.966-11.34
							c16.77-7.217,36.214,0.527,43.431,17.296c7.217,16.77-0.527,36.214-17.296,43.431c-16.769,7.217-36.214-0.527-43.431-17.296
							c-3.013-7.002-3.41-14.468-1.638-21.319l-0.009,0.016L267.429,172.631z"/>
					</g>
					<g>
						<g>
							<path style="fill:#263238;" d="M267.429,172.631c0.554,0.735,3.409,4.521,9.251,12.267l-0.217,0.014l0.009-0.016
								c0.035-0.063,0.114-0.085,0.176-0.051c0.053,0.029,0.077,0.091,0.063,0.146c-1.168,4.567-1.618,10.584,0.219,17.073
								c0.469,1.609,1.036,3.256,1.828,4.857c0.402,0.797,0.783,1.621,1.218,2.429c0.488,0.779,0.983,1.568,1.484,2.368
								c2.145,3.105,4.939,6.017,8.35,8.383c3.403,2.368,7.416,4.186,11.792,5.143c4.368,0.955,9.101,1.065,13.759,0.063
								c4.648-1.008,9.212-3.06,13.171-6.101c3.94-3.042,7.356-7.021,9.552-11.723c2.256-4.773,3.465-9.989,3.277-15.086
								c-0.143-5.094-1.478-10.019-3.704-14.321c-2.225-4.304-5.32-8.008-8.936-10.777c-3.605-2.787-7.648-4.711-11.709-5.796
								c-4.066-1.091-8.144-1.344-11.937-0.962c-3.805,0.396-7.262,1.537-10.351,2.863c-6.155,2.824-10.395,7.083-13.067,10.854
								c-0.026,0.038-0.073,0.057-0.116,0.052C272.602,173.247,268.302,172.735,267.429,172.631
								c0.875,0.089,5.183,0.525,14.138,1.432l-0.116,0.052c2.659-3.822,6.912-8.152,13.12-11.037
								c3.115-1.356,6.608-2.525,10.459-2.94c3.838-0.401,7.971-0.159,12.095,0.936c4.119,1.088,8.224,3.029,11.887,5.849
								c3.674,2.802,6.824,6.557,9.088,10.923c2.266,4.364,3.627,9.365,3.775,14.539c0.193,5.178-1.031,10.477-3.324,15.325
								c-2.231,4.776-5.702,8.819-9.707,11.906c-4.024,3.087-8.659,5.165-13.381,6.182c-4.731,1.012-9.536,0.892-13.966-0.086
								c-4.437-0.979-8.503-2.833-11.946-5.243c-3.451-2.408-6.273-5.368-8.433-8.52c-0.505-0.812-1.002-1.613-1.493-2.403
								c-0.437-0.82-0.82-1.655-1.223-2.463c-0.793-1.623-1.36-3.292-1.826-4.921c-1.826-6.571-1.332-12.644-0.117-17.237
								l0.239,0.096l-0.009,0.016c-0.034,0.063-0.113,0.085-0.175,0.051c-0.017-0.009-0.032-0.023-0.042-0.037
								C270.761,177.209,267.97,173.375,267.429,172.631z"/>
						</g>
					</g>
				</g>
			</g>
		</g>
		<g>
			<g>
				<g>
					<g>
						<path style="fill:#263238;" d="M296.401,181.444c0.009,0.009,0.017,0.164,0.025,0.457c0.007,0.328,0.015,0.751,0.026,1.282
							c0.014,1.155,0.034,2.771,0.059,4.807c0.028,4.146,0.068,9.991,0.115,16.988l-0.225-0.225c6.85-0.01,14.92-0.022,23.531-0.035
							c0.06-0.056-0.491,0.491-0.258,0.256v-0.006v-0.013v-0.025v-0.051v-0.101v-0.202v-0.403l0-0.803c0-0.534,0-1.066,0.001-1.596
							c0.001-1.059,0.001-2.108,0.002-3.146c0.002-2.076,0.005-4.107,0.007-6.083c0.009-3.949,0.018-7.677,0.026-11.101l0.225,0.225
							c-6.998-0.047-12.843-0.087-16.989-0.115c-2.035-0.025-3.652-0.045-4.806-0.059c-0.53-0.011-0.954-0.02-1.281-0.026
							C296.565,181.461,296.41,181.452,296.401,181.444c-0.008-0.008,0.13-0.017,0.408-0.025c0.316-0.007,0.726-0.015,1.238-0.026
							c1.142-0.014,2.741-0.034,4.755-0.059c4.181-0.028,10.076-0.068,17.132-0.115l0.225-0.002l0.001,0.227
							c0.008,3.424,0.017,7.152,0.026,11.101c0.002,1.976,0.004,4.007,0.007,6.083c0.001,1.038,0.001,2.087,0.002,3.146
							c0,0.529,0,1.061,0,1.596l0,0.803l0,0.403v0.202v0.101v0.051v0.025v0.013v0.006c0.233-0.231-0.316,0.322-0.263,0.264
							c-8.611-0.013-16.681-0.025-23.531-0.035l-0.227,0l0.001-0.225c0.047-7.056,0.087-12.951,0.115-17.132
							c0.025-2.014,0.045-3.613,0.059-4.756c0.011-0.512,0.019-0.921,0.026-1.238C296.384,181.574,296.393,181.435,296.401,181.444z
							"/>
					</g>
				</g>
			</g>
			<g>
				<g>
					<path style="fill:#FF725E;" d="M317.395,185.334c0.338,0.268-2.828,4.827-7.072,10.182c-0.847,1.069-1.673,2.089-2.441,3.016
						l-0.503,0.608l-0.563-0.507c-3.676-3.31-6.17-5.852-5.944-6.113c0.226-0.261,3.103,1.837,6.913,4.991l-1.066,0.101
						c0.727-0.959,1.531-1.996,2.378-3.065C313.342,189.191,317.057,185.066,317.395,185.334z"/>
				</g>
			</g>
		</g>
	</g>
</g>
</svg>
